<mxfile host="app.diagrams.net" agent="Mozilla/5.0 (Windows NT 10.0; Win64; x64) AppleWebKit/537.36 (KHTML, like Gecko) Chrome/128.0.0.0 Safari/537.36 Edg/128.0.0.0" version="24.7.8">
  <diagram name="Página-1" id="LT_tVly3GZGUdZQrAoET">
    <mxGraphModel grid="1" page="1" gridSize="10" guides="1" tooltips="1" connect="1" arrows="1" fold="1" pageScale="1" pageWidth="827" pageHeight="1169" math="0" shadow="0">
      <root>
        <mxCell id="0" />
        <mxCell id="1" parent="0" />
        <mxCell id="ifA4q1T7cPtU3ayCD0aI-2" value="Sistema de Gestión de Inventarios" style="ellipse;whiteSpace=wrap;html=1;fillColor=#f8cecc;strokeColor=#b85450;" vertex="1" parent="1">
          <mxGeometry x="-455" y="-440" width="154" height="100" as="geometry" />
        </mxCell>
        <mxCell id="smJAxq2vNJxop1MBDMqk-154" style="edgeStyle=orthogonalEdgeStyle;rounded=0;orthogonalLoop=1;jettySize=auto;html=1;exitX=0.5;exitY=0;exitDx=0;exitDy=0;" edge="1" parent="1" source="ifA4q1T7cPtU3ayCD0aI-3" target="ifA4q1T7cPtU3ayCD0aI-2">
          <mxGeometry relative="1" as="geometry" />
        </mxCell>
        <mxCell id="ifA4q1T7cPtU3ayCD0aI-3" value="Gestión de Productos" style="rounded=0;whiteSpace=wrap;html=1;fillColor=#dae8fc;strokeColor=#6c8ebf;" vertex="1" parent="1">
          <mxGeometry x="-2940" y="60" width="120" height="60" as="geometry" />
        </mxCell>
        <mxCell id="smJAxq2vNJxop1MBDMqk-149" style="edgeStyle=orthogonalEdgeStyle;rounded=0;orthogonalLoop=1;jettySize=auto;html=1;exitX=0.5;exitY=0;exitDx=0;exitDy=0;" edge="1" parent="1" source="ifA4q1T7cPtU3ayCD0aI-8" target="ifA4q1T7cPtU3ayCD0aI-3">
          <mxGeometry relative="1" as="geometry" />
        </mxCell>
        <mxCell id="ifA4q1T7cPtU3ayCD0aI-8" value="&lt;span id=&quot;docs-internal-guid-405bb6d1-7fff-6382-8991-3358a865125e&quot;&gt;&lt;span style=&quot;font-family: Arial, sans-serif; background-color: transparent; font-variant-numeric: normal; font-variant-east-asian: normal; font-variant-alternates: normal; font-variant-position: normal; vertical-align: baseline; white-space-collapse: preserve;&quot;&gt;&lt;font style=&quot;font-size: 12px;&quot;&gt;Asignación de códigos únicos a cada producto.&lt;/font&gt;&lt;/span&gt;&lt;/span&gt;" style="rounded=0;whiteSpace=wrap;html=1;fillColor=#dae8fc;strokeColor=#6c8ebf;" vertex="1" parent="1">
          <mxGeometry x="-2225" y="249" width="120" height="60" as="geometry" />
        </mxCell>
        <mxCell id="smJAxq2vNJxop1MBDMqk-148" style="edgeStyle=orthogonalEdgeStyle;rounded=0;orthogonalLoop=1;jettySize=auto;html=1;exitX=0.5;exitY=0;exitDx=0;exitDy=0;" edge="1" parent="1" source="ifA4q1T7cPtU3ayCD0aI-9" target="ifA4q1T7cPtU3ayCD0aI-3">
          <mxGeometry relative="1" as="geometry" />
        </mxCell>
        <mxCell id="ifA4q1T7cPtU3ayCD0aI-9" value="&lt;span id=&quot;docs-internal-guid-d1960ae5-7fff-f691-d608-1da2728483b5&quot;&gt;&lt;span style=&quot;font-family: Arial, sans-serif; background-color: transparent; font-variant-numeric: normal; font-variant-east-asian: normal; font-variant-alternates: normal; font-variant-position: normal; vertical-align: baseline; white-space-collapse: preserve;&quot;&gt;&lt;font style=&quot;font-size: 12px;&quot;&gt;Definición de categorías, características y especificaciones de los productos.&lt;/font&gt;&lt;/span&gt;&lt;/span&gt;" style="rounded=0;whiteSpace=wrap;html=1;fillColor=#dae8fc;strokeColor=#6c8ebf;" vertex="1" parent="1">
          <mxGeometry x="-2940" y="249" width="120" height="70" as="geometry" />
        </mxCell>
        <mxCell id="smJAxq2vNJxop1MBDMqk-129" style="edgeStyle=orthogonalEdgeStyle;rounded=0;orthogonalLoop=1;jettySize=auto;html=1;exitX=0.5;exitY=0;exitDx=0;exitDy=0;" edge="1" parent="1" source="ifA4q1T7cPtU3ayCD0aI-21" target="smJAxq2vNJxop1MBDMqk-65">
          <mxGeometry relative="1" as="geometry" />
        </mxCell>
        <mxCell id="ifA4q1T7cPtU3ayCD0aI-21" value="&lt;span id=&quot;docs-internal-guid-2f8ea0d1-7fff-433c-dc08-8aa9278305ec&quot;&gt;&lt;span style=&quot;font-family: Arial, sans-serif; background-color: transparent; font-variant-numeric: normal; font-variant-east-asian: normal; font-variant-alternates: normal; font-variant-position: normal; vertical-align: baseline; white-space-collapse: preserve;&quot;&gt;Visualización de gráficas y estadísticas sobre las tendencias de compra y venta.&lt;/span&gt;&lt;/span&gt;" style="rounded=0;whiteSpace=wrap;html=1;fillColor=#e1d5e7;strokeColor=#9673a6;" vertex="1" parent="1">
          <mxGeometry x="930" y="254" width="120" height="70" as="geometry" />
        </mxCell>
        <mxCell id="smJAxq2vNJxop1MBDMqk-145" style="edgeStyle=orthogonalEdgeStyle;rounded=0;orthogonalLoop=1;jettySize=auto;html=1;exitX=0.5;exitY=0;exitDx=0;exitDy=0;" edge="1" parent="1" source="ifA4q1T7cPtU3ayCD0aI-57" target="ifA4q1T7cPtU3ayCD0aI-9">
          <mxGeometry relative="1" as="geometry">
            <Array as="points">
              <mxPoint x="-2750" y="350" />
              <mxPoint x="-2880" y="350" />
            </Array>
          </mxGeometry>
        </mxCell>
        <mxCell id="ifA4q1T7cPtU3ayCD0aI-57" value="&lt;span id=&quot;docs-internal-guid-e5859c4d-7fff-e714-6009-67da10be89df&quot;&gt;&lt;span style=&quot;font-family: Arial, sans-serif; background-color: transparent; font-variant-numeric: normal; font-variant-east-asian: normal; font-variant-alternates: normal; font-variant-position: normal; vertical-align: baseline; white-space-collapse: preserve;&quot;&gt;&lt;font style=&quot;font-size: 12px;&quot;&gt;Definición de Especificaciones&lt;/font&gt;&lt;/span&gt;&lt;/span&gt;" style="rounded=0;whiteSpace=wrap;html=1;align=center;fillColor=#dae8fc;strokeColor=#6c8ebf;" vertex="1" parent="1">
          <mxGeometry x="-2810" y="390" width="120" height="54" as="geometry" />
        </mxCell>
        <mxCell id="smJAxq2vNJxop1MBDMqk-95" style="edgeStyle=orthogonalEdgeStyle;rounded=0;orthogonalLoop=1;jettySize=auto;html=1;exitX=0.5;exitY=0;exitDx=0;exitDy=0;entryX=0.5;entryY=1;entryDx=0;entryDy=0;" edge="1" parent="1" source="ifA4q1T7cPtU3ayCD0aI-59" target="ifA4q1T7cPtU3ayCD0aI-9">
          <mxGeometry relative="1" as="geometry" />
        </mxCell>
        <mxCell id="ifA4q1T7cPtU3ayCD0aI-59" value="&lt;span id=&quot;docs-internal-guid-bc6af7c7-7fff-6f0a-7688-6d4785aba637&quot;&gt;&lt;span style=&quot;font-family: Arial, sans-serif; background-color: transparent; font-variant-numeric: normal; font-variant-east-asian: normal; font-variant-alternates: normal; font-variant-position: normal; vertical-align: baseline; white-space-collapse: preserve;&quot;&gt;&lt;font style=&quot;font-size: 12px;&quot;&gt;Asignación de Categorías, Características y Especificaciones a Productos&lt;/font&gt;&lt;/span&gt;&lt;/span&gt;" style="rounded=0;whiteSpace=wrap;html=1;align=center;fillColor=#dae8fc;strokeColor=#6c8ebf;" vertex="1" parent="1">
          <mxGeometry x="-2570" y="384" width="120" height="70" as="geometry" />
        </mxCell>
        <mxCell id="smJAxq2vNJxop1MBDMqk-143" style="edgeStyle=orthogonalEdgeStyle;rounded=0;orthogonalLoop=1;jettySize=auto;html=1;exitX=0.5;exitY=0;exitDx=0;exitDy=0;" edge="1" parent="1" source="ifA4q1T7cPtU3ayCD0aI-60" target="ifA4q1T7cPtU3ayCD0aI-8">
          <mxGeometry relative="1" as="geometry" />
        </mxCell>
        <mxCell id="ifA4q1T7cPtU3ayCD0aI-60" value="&lt;span id=&quot;docs-internal-guid-27d3e2ce-7fff-d489-f297-bad26125dd79&quot;&gt;&lt;span style=&quot;font-family: Arial, sans-serif; background-color: transparent; font-variant-numeric: normal; font-variant-east-asian: normal; font-variant-alternates: normal; font-variant-position: normal; vertical-align: baseline; white-space-collapse: preserve;&quot;&gt;&lt;font style=&quot;font-size: 12px;&quot;&gt;Modificación de Productos&lt;/font&gt;&lt;/span&gt;&lt;/span&gt;" style="rounded=0;whiteSpace=wrap;html=1;align=center;fillColor=#dae8fc;strokeColor=#6c8ebf;" vertex="1" parent="1">
          <mxGeometry x="-2330" y="394" width="120" height="60" as="geometry" />
        </mxCell>
        <mxCell id="smJAxq2vNJxop1MBDMqk-144" style="edgeStyle=orthogonalEdgeStyle;rounded=0;orthogonalLoop=1;jettySize=auto;html=1;exitX=0.5;exitY=0;exitDx=0;exitDy=0;" edge="1" parent="1" source="ifA4q1T7cPtU3ayCD0aI-61" target="ifA4q1T7cPtU3ayCD0aI-8">
          <mxGeometry relative="1" as="geometry" />
        </mxCell>
        <mxCell id="ifA4q1T7cPtU3ayCD0aI-61" value="&lt;span id=&quot;docs-internal-guid-9697123e-7fff-0d6c-85d9-8165df3822d4&quot;&gt;&lt;span style=&quot;font-family: Arial, sans-serif; background-color: transparent; font-variant-numeric: normal; font-variant-east-asian: normal; font-variant-alternates: normal; font-variant-position: normal; vertical-align: baseline; white-space-collapse: preserve;&quot;&gt;&lt;font style=&quot;font-size: 12px;&quot;&gt;Consideraciones adicionales&lt;/font&gt;&lt;/span&gt;&lt;/span&gt;" style="rounded=0;whiteSpace=wrap;html=1;align=center;fillColor=#dae8fc;strokeColor=#6c8ebf;" vertex="1" parent="1">
          <mxGeometry x="-2105" y="394" width="120" height="60" as="geometry" />
        </mxCell>
        <mxCell id="smJAxq2vNJxop1MBDMqk-86" style="edgeStyle=orthogonalEdgeStyle;rounded=0;orthogonalLoop=1;jettySize=auto;html=1;exitX=0.5;exitY=0;exitDx=0;exitDy=0;entryX=0.5;entryY=1;entryDx=0;entryDy=0;" edge="1" parent="1" source="ifA4q1T7cPtU3ayCD0aI-125" target="ifA4q1T7cPtU3ayCD0aI-57">
          <mxGeometry relative="1" as="geometry" />
        </mxCell>
        <mxCell id="ifA4q1T7cPtU3ayCD0aI-125" value="&lt;p style=&quot;margin-left:18.0pt;line-height:normal&quot; class=&quot;MsoNormal&quot;&gt;&lt;font&gt;El usuario&lt;br&gt;debe acceder a la sección de &quot;Especificaciones de Productos&quot;.&lt;/font&gt;&lt;/p&gt;&lt;p style=&quot;margin-left:18.0pt;line-height:normal&quot; class=&quot;MsoNormal&quot;&gt;&lt;font&gt;El sistema&lt;br&gt;debe mostrar una lista de las especificaciones existentes.&lt;/font&gt;&lt;/p&gt;&lt;p style=&quot;margin-left:18.0pt;line-height:normal&quot; class=&quot;MsoNormal&quot;&gt;&lt;font&gt;El usuario&lt;br&gt;debe poder agregar una nueva especificación ingresando un nombre, una&lt;br&gt;descripción (opcional) y el tipo de dato (texto, número, fecha, etc.).&lt;/font&gt;&lt;/p&gt;&lt;p style=&quot;margin-left:18.0pt;line-height:normal&quot; class=&quot;MsoNormal&quot;&gt;&lt;font&gt;El sistema&lt;br&gt;debe validar que el nombre de la especificación no esté vacío y no exista otra&lt;br&gt;especificación con el mismo nombre.&lt;/font&gt;&lt;/p&gt;&lt;p style=&quot;margin-left:18.0pt;line-height:normal&quot; class=&quot;MsoNormal&quot;&gt;&lt;font&gt;El sistema&lt;br&gt;debe guardar la nueva especificación en un archivo de texto de acceso&lt;br&gt;secuencial.&lt;/font&gt;&lt;/p&gt;&lt;p style=&quot;margin-left:18.0pt;line-height:normal&quot; class=&quot;MsoNormal&quot;&gt;&lt;font&gt;El usuario&lt;br&gt;debe poder modificar el nombre, la descripción y el tipo de dato de una&lt;br&gt;especificación existente.&lt;/font&gt;&lt;/p&gt;&lt;p style=&quot;margin-left:18.0pt;line-height:normal&quot; class=&quot;MsoNormal&quot;&gt;&lt;font&gt;El sistema&lt;br&gt;debe validar que el nuevo nombre de la especificación no esté vacío y no exista otra&lt;br&gt;especificación con el mismo nombre.&lt;/font&gt;&lt;/p&gt;&lt;p style=&quot;margin-left:18.0pt;line-height:normal&quot; class=&quot;MsoNormal&quot;&gt;&lt;font&gt;El sistema&lt;br&gt;debe guardar los cambios en un archivo de texto de acceso secuencial&lt;/font&gt;&lt;/p&gt;&lt;p style=&quot;margin-left:18.0pt;line-height:normal&quot; class=&quot;MsoNormal&quot;&gt;&lt;font&gt;El usuario&lt;br&gt;debe poder eliminar una especificación existente.&lt;/font&gt;&lt;/p&gt;&lt;p style=&quot;margin-left:18.0pt;line-height:normal&quot; class=&quot;MsoNormal&quot;&gt;&lt;font&gt;El sistema&lt;br&gt;debe mostrar una confirmación al usuario para asegurarse de que desea eliminar&lt;br&gt;la especificación.&lt;/font&gt;&lt;/p&gt;&lt;p style=&quot;margin-left:18.0pt;line-height:normal&quot; class=&quot;MsoNormal&quot;&gt;&lt;font&gt;Si el usuario&lt;br&gt;confirma la eliminación, el sistema debe eliminar la especificación de la base&lt;br&gt;de datos.&lt;/font&gt;&lt;/p&gt;&lt;p style=&quot;margin-left:18.0pt;line-height:normal&quot; class=&quot;MsoNormal&quot;&gt;&lt;font&gt;El sistema&lt;br&gt;debe eliminar las asociaciones entre la especificación y los productos que la&lt;br&gt;utilizaban.&lt;/font&gt;&lt;/p&gt;" style="rounded=0;whiteSpace=wrap;html=1;align=left;fillColor=#dae8fc;strokeColor=#6c8ebf;" vertex="1" parent="1">
          <mxGeometry x="-2855" y="486" width="210" height="938" as="geometry" />
        </mxCell>
        <mxCell id="ifA4q1T7cPtU3ayCD0aI-126" style="edgeStyle=orthogonalEdgeStyle;rounded=0;orthogonalLoop=1;jettySize=auto;html=1;exitX=0.5;exitY=1;exitDx=0;exitDy=0;" edge="1" parent="1">
          <mxGeometry relative="1" as="geometry">
            <mxPoint x="-538" y="1370" as="sourcePoint" />
            <mxPoint x="-538" y="1370" as="targetPoint" />
          </mxGeometry>
        </mxCell>
        <mxCell id="smJAxq2vNJxop1MBDMqk-92" style="edgeStyle=orthogonalEdgeStyle;rounded=0;orthogonalLoop=1;jettySize=auto;html=1;exitX=0.5;exitY=0;exitDx=0;exitDy=0;entryX=0.5;entryY=1;entryDx=0;entryDy=0;" edge="1" parent="1" source="ifA4q1T7cPtU3ayCD0aI-132" target="ifA4q1T7cPtU3ayCD0aI-9">
          <mxGeometry relative="1" as="geometry" />
        </mxCell>
        <mxCell id="ifA4q1T7cPtU3ayCD0aI-132" value="&lt;span id=&quot;docs-internal-guid-e3e479a1-7fff-511a-7746-9dc8a4c2573e&quot;&gt;&lt;span style=&quot;font-family: Arial, sans-serif; background-color: transparent; font-variant-numeric: normal; font-variant-east-asian: normal; font-variant-alternates: normal; font-variant-position: normal; vertical-align: baseline; white-space-collapse: preserve;&quot;&gt;&lt;font style=&quot;font-size: 12px;&quot;&gt;Definición de Categorías&lt;/font&gt;&lt;/span&gt;&lt;/span&gt;" style="rounded=0;whiteSpace=wrap;html=1;align=center;fillColor=#dae8fc;strokeColor=#6c8ebf;" vertex="1" parent="1">
          <mxGeometry x="-3377" y="384" width="120" height="60" as="geometry" />
        </mxCell>
        <mxCell id="smJAxq2vNJxop1MBDMqk-83" style="edgeStyle=orthogonalEdgeStyle;rounded=0;orthogonalLoop=1;jettySize=auto;html=1;exitX=0.5;exitY=0;exitDx=0;exitDy=0;entryX=0.5;entryY=1;entryDx=0;entryDy=0;" edge="1" parent="1" source="ifA4q1T7cPtU3ayCD0aI-133" target="ifA4q1T7cPtU3ayCD0aI-132">
          <mxGeometry relative="1" as="geometry" />
        </mxCell>
        <mxCell id="ifA4q1T7cPtU3ayCD0aI-133" value="&lt;p style=&quot;margin-left:18.0pt&quot; class=&quot;MsoNormal&quot;&gt;&lt;font&gt;&lt;span style=&quot;background-color: initial;&quot;&gt;El usuario debe acceder a la&lt;/span&gt;&lt;br&gt;&lt;span style=&quot;background-color: initial;&quot;&gt;sección de &quot;Categorías de Productos&quot;.&lt;/span&gt;&lt;br&gt;&lt;br&gt;&lt;br&gt;&lt;span style=&quot;background-color: initial;&quot;&gt;El sistema debe mostrar una lista&lt;/span&gt;&lt;br&gt;&lt;span style=&quot;background-color: initial;&quot;&gt;de las categorías existentes.&lt;/span&gt;&lt;br&gt;&lt;br&gt;&lt;br&gt;&lt;span style=&quot;background-color: initial;&quot;&gt;El usuario debe poder agregar una&lt;/span&gt;&lt;br&gt;&lt;span style=&quot;background-color: initial;&quot;&gt;Nueva categoría ingresando un nombre y una descripción (opcional).&lt;/span&gt;&lt;br&gt;&lt;br&gt;&lt;br&gt;&lt;span style=&quot;background-color: initial;&quot;&gt;El sistema debe validar que el&lt;/span&gt;&lt;br&gt;&lt;span style=&quot;background-color: initial;&quot;&gt;nombre de la categoría no esté vacío y no exista otra categoría con el mismo&lt;/span&gt;&lt;br&gt;&lt;span style=&quot;background-color: initial;&quot;&gt;nombre.&lt;/span&gt;&lt;br&gt;&lt;br&gt;&lt;br&gt;&lt;span style=&quot;background-color: initial;&quot;&gt;El sistema debe guardar la nueva&lt;/span&gt;&lt;br&gt;&lt;span style=&quot;background-color: initial;&quot;&gt;categoría en un archivo de texto de acceso secuencial.&lt;/span&gt;&lt;br&gt;&lt;br&gt;&lt;br&gt;&lt;span style=&quot;background-color: initial;&quot;&gt;El usuario debe poder modificar&lt;/span&gt;&lt;br&gt;&lt;span style=&quot;background-color: initial;&quot;&gt;el nombre y la descripción de una categoría existente.&lt;/span&gt;&lt;br&gt;&lt;br&gt;&lt;br&gt;&lt;span style=&quot;background-color: initial;&quot;&gt;El sistema debe validar que el&lt;/span&gt;&lt;br&gt;&lt;span style=&quot;background-color: initial;&quot;&gt;nuevo nombre de la categoría no esté vacío y no exista otra categoría con el&lt;/span&gt;&lt;br&gt;&lt;span style=&quot;background-color: initial;&quot;&gt;mismo nombre.&lt;/span&gt;&lt;br&gt;&lt;br&gt;&lt;br&gt;&lt;span style=&quot;background-color: initial;&quot;&gt;El sistema debe guardar los&lt;/span&gt;&lt;br&gt;&lt;span style=&quot;background-color: initial;&quot;&gt;cambios en un archivo de texto de acceso secuencial.&lt;/span&gt;&lt;br&gt;&lt;br&gt;&lt;br&gt;&lt;span style=&quot;background-color: initial;&quot;&gt;El usuario debe poder eliminar&lt;/span&gt;&lt;br&gt;&lt;span style=&quot;background-color: initial;&quot;&gt;una categoría existente.&lt;/span&gt;&lt;br&gt;&lt;br&gt;&lt;br&gt;&lt;span style=&quot;background-color: initial;&quot;&gt;El sistema debe mostrar una&lt;/span&gt;&lt;br&gt;&lt;span style=&quot;background-color: initial;&quot;&gt;confirmación al usuario para asegurarse de que desea eliminar la categoría.&lt;/span&gt;&lt;br&gt;&lt;br&gt;&lt;br&gt;&lt;span style=&quot;background-color: initial;&quot;&gt;Si el usuario confirma la&lt;/span&gt;&lt;br&gt;&lt;span style=&quot;background-color: initial;&quot;&gt;eliminación, el sistema debe eliminar la categoría del archivo de texto de&lt;/span&gt;&lt;br&gt;&lt;span style=&quot;background-color: initial;&quot;&gt;acceso secuencial.&lt;/span&gt;&lt;br&gt;&lt;br&gt;&lt;br&gt;&lt;span style=&quot;background-color: initial;&quot;&gt;El sistema debe eliminar las&lt;/span&gt;&lt;br&gt;&lt;span style=&quot;background-color: initial;&quot;&gt;asociaciones entre la categoría y los productos que pertenecían a ella.&lt;/span&gt;&lt;/font&gt;&lt;br&gt;&lt;br&gt;&lt;br&gt;&lt;span style=&quot;background-color: initial;&quot;&gt;&amp;nbsp;&lt;/span&gt;&lt;br&gt;&lt;br&gt;&lt;br&gt;&lt;span style=&quot;background-color: initial;&quot;&gt;&amp;nbsp;&lt;/span&gt;&lt;br&gt;&lt;/p&gt;" style="rounded=0;whiteSpace=wrap;html=1;align=left;fillColor=#dae8fc;strokeColor=#6c8ebf;" vertex="1" parent="1">
          <mxGeometry x="-3442" y="484" width="250" height="940" as="geometry" />
        </mxCell>
        <mxCell id="smJAxq2vNJxop1MBDMqk-85" style="edgeStyle=orthogonalEdgeStyle;rounded=0;orthogonalLoop=1;jettySize=auto;html=1;exitX=0.5;exitY=0;exitDx=0;exitDy=0;entryX=0.5;entryY=1;entryDx=0;entryDy=0;" edge="1" parent="1" source="ifA4q1T7cPtU3ayCD0aI-134" target="ifA4q1T7cPtU3ayCD0aI-135">
          <mxGeometry relative="1" as="geometry" />
        </mxCell>
        <mxCell id="ifA4q1T7cPtU3ayCD0aI-134" value="&lt;p style=&quot;line-height:normal&quot; class=&quot;MsoListParagraph&quot;&gt;&lt;br&gt;&lt;/p&gt;&lt;p style=&quot;margin-left:18.0pt;line-height:normal&quot; class=&quot;MsoNormal&quot;&gt;&lt;font&gt;El usuario&lt;br&gt;debe acceder a la sección de &quot;Características de Productos&quot;.&lt;/font&gt;&lt;/p&gt;&lt;p style=&quot;margin-left:18.0pt;line-height:normal&quot; class=&quot;MsoNormal&quot;&gt;&lt;font&gt;El sistema&lt;br&gt;debe mostrar una lista de las características existentes.&lt;/font&gt;&lt;/p&gt;&lt;p style=&quot;margin-left:18.0pt;line-height:normal&quot; class=&quot;MsoNormal&quot;&gt;&lt;font&gt;El usuario&lt;br&gt;debe poder agregar una nueva característica ingresando un nombre y una&lt;br&gt;descripción (opcional).&lt;/font&gt;&lt;/p&gt;&lt;p style=&quot;margin-left:18.0pt;line-height:normal&quot; class=&quot;MsoNormal&quot;&gt;&lt;font&gt;El sistema&lt;br&gt;debe validar que el nombre de la característica no esté vacío y no exista otra&lt;br&gt;característica con el mismo nombre.&lt;/font&gt;&lt;/p&gt;&lt;p style=&quot;margin-left:18.0pt;line-height:normal&quot; class=&quot;MsoNormal&quot;&gt;&lt;font&gt;El sistema&lt;br&gt;debe guardar la nueva característica en un archivo de texto de acceso&lt;br&gt;secuencial.&lt;/font&gt;&lt;/p&gt;&lt;p style=&quot;margin-left:18.0pt;line-height:normal&quot; class=&quot;MsoNormal&quot;&gt;&lt;font&gt;El usuario&lt;br&gt;debe poder modificar el nombre y la descripción de una característica&lt;br&gt;existente.&lt;/font&gt;&lt;/p&gt;&lt;p style=&quot;margin-left:18.0pt;line-height:normal&quot; class=&quot;MsoNormal&quot;&gt;&lt;font&gt;El sistema&lt;br&gt;debe validar que el nuevo nombre de la característica no esté vacío y no exista otra&lt;br&gt;característica con el mismo nombre.&lt;/font&gt;&lt;/p&gt;&lt;p style=&quot;margin-left:18.0pt;line-height:normal&quot; class=&quot;MsoNormal&quot;&gt;&lt;font&gt;El sistema&lt;br&gt;debe guardar los cambios en un archivo de texto de acceso secuencial.&lt;/font&gt;&lt;/p&gt;&lt;p style=&quot;margin-left:18.0pt;line-height:normal&quot; class=&quot;MsoNormal&quot;&gt;&lt;font&gt;El usuario&lt;br&gt;debe poder eliminar una característica existente.&lt;/font&gt;&lt;/p&gt;&lt;p style=&quot;margin-left:18.0pt;line-height:normal&quot; class=&quot;MsoNormal&quot;&gt;&lt;font&gt;El sistema&lt;br&gt;debe mostrar una confirmación al usuario para asegurarse de que desea eliminar&lt;br&gt;la característica.&lt;/font&gt;&lt;/p&gt;&lt;p style=&quot;margin-left:18.0pt;line-height:normal&quot; class=&quot;MsoNormal&quot;&gt;&lt;font&gt;Si el usuario&lt;br&gt;confirma la eliminación, el sistema debe eliminar la característica del archivo&lt;br&gt;de texto de acceso secuencial.&lt;/font&gt;&lt;/p&gt;&lt;p style=&quot;margin-left:18.0pt;line-height:normal&quot; class=&quot;MsoNormal&quot;&gt;&lt;font&gt;El sistema&lt;br&gt;debe eliminar las asociaciones entre la característica y los productos que la&lt;br&gt;utilizaban.&lt;/font&gt;&lt;/p&gt;" style="rounded=0;whiteSpace=wrap;html=1;align=left;fillColor=#dae8fc;strokeColor=#6c8ebf;" vertex="1" parent="1">
          <mxGeometry x="-3162" y="486" width="250" height="830" as="geometry" />
        </mxCell>
        <mxCell id="smJAxq2vNJxop1MBDMqk-93" style="edgeStyle=orthogonalEdgeStyle;rounded=0;orthogonalLoop=1;jettySize=auto;html=1;exitX=0.5;exitY=0;exitDx=0;exitDy=0;" edge="1" parent="1" source="ifA4q1T7cPtU3ayCD0aI-135">
          <mxGeometry relative="1" as="geometry">
            <mxPoint x="-2880" y="320" as="targetPoint" />
          </mxGeometry>
        </mxCell>
        <mxCell id="ifA4q1T7cPtU3ayCD0aI-135" value="&lt;span id=&quot;docs-internal-guid-99689d8c-7fff-a5c3-7e6b-030b7c0817f9&quot;&gt;&lt;span style=&quot;font-family: Arial, sans-serif; background-color: transparent; font-variant-numeric: normal; font-variant-east-asian: normal; font-variant-alternates: normal; font-variant-position: normal; vertical-align: baseline; white-space-collapse: preserve;&quot;&gt;&lt;font style=&quot;font-size: 12px;&quot;&gt;Definición de Características&lt;/font&gt;&lt;/span&gt;&lt;/span&gt;" style="rounded=0;whiteSpace=wrap;html=1;align=center;fillColor=#dae8fc;strokeColor=#6c8ebf;" vertex="1" parent="1">
          <mxGeometry x="-3097" y="379" width="120" height="60" as="geometry" />
        </mxCell>
        <mxCell id="smJAxq2vNJxop1MBDMqk-87" style="edgeStyle=orthogonalEdgeStyle;rounded=0;orthogonalLoop=1;jettySize=auto;html=1;exitX=0.5;exitY=0;exitDx=0;exitDy=0;entryX=0.5;entryY=1;entryDx=0;entryDy=0;" edge="1" parent="1" source="ifA4q1T7cPtU3ayCD0aI-136" target="ifA4q1T7cPtU3ayCD0aI-59">
          <mxGeometry relative="1" as="geometry" />
        </mxCell>
        <mxCell id="ifA4q1T7cPtU3ayCD0aI-136" value="&lt;p style=&quot;margin-left:18.0pt;line-height:normal&quot; class=&quot;MsoNormal&quot;&gt;&lt;font&gt;Al crear un&lt;br&gt;nuevo producto, el usuario debe seleccionar la categoría a la que pertenece el&lt;br&gt;producto.&lt;/font&gt;&lt;/p&gt;&lt;p style=&quot;margin-left:18.0pt;line-height:normal&quot; class=&quot;MsoNormal&quot;&gt;&lt;font&gt;El usuario&lt;br&gt;debe seleccionar las características y especificaciones que definen las&lt;br&gt;propiedades del producto.&lt;/font&gt;&lt;/p&gt;&lt;p style=&quot;margin-left:18.0pt;line-height:normal&quot; class=&quot;MsoNormal&quot;&gt;&lt;font&gt;El usuario&lt;br&gt;debe ingresar los valores para cada característica y especificación&lt;br&gt;seleccionada.&lt;/font&gt;&lt;/p&gt;&lt;p style=&quot;margin-left:18.0pt;line-height:normal&quot; class=&quot;MsoNormal&quot;&gt;&lt;font&gt;Al modificar&lt;br&gt;un producto existente, el usuario puede cambiar la categoría, las&lt;br&gt;características y las especificaciones del producto.&lt;/font&gt;&lt;/p&gt;&lt;p style=&quot;margin-left:18.0pt;line-height:normal&quot; class=&quot;MsoNormal&quot;&gt;&lt;font&gt;El sistema&lt;br&gt;debe validar que los valores ingresados para las características y&lt;br&gt;especificaciones sean del tipo de dato correcto.&lt;/font&gt;&lt;/p&gt;&lt;br&gt;&lt;br&gt;&lt;p style=&quot;line-height: normal;&quot; class=&quot;MsoNormal&quot;&gt;&amp;nbsp;&lt;/p&gt;" style="rounded=0;whiteSpace=wrap;html=1;align=left;fillColor=#dae8fc;strokeColor=#6c8ebf;" vertex="1" parent="1">
          <mxGeometry x="-2610" y="484" width="200" height="510" as="geometry" />
        </mxCell>
        <mxCell id="smJAxq2vNJxop1MBDMqk-88" style="edgeStyle=orthogonalEdgeStyle;rounded=0;orthogonalLoop=1;jettySize=auto;html=1;exitX=0.5;exitY=0;exitDx=0;exitDy=0;entryX=0.5;entryY=1;entryDx=0;entryDy=0;" edge="1" parent="1" source="ifA4q1T7cPtU3ayCD0aI-137" target="ifA4q1T7cPtU3ayCD0aI-60">
          <mxGeometry relative="1" as="geometry" />
        </mxCell>
        <mxCell id="ifA4q1T7cPtU3ayCD0aI-137" value="&lt;p style=&quot;margin-left:18.0pt;line-height:normal&quot; class=&quot;MsoNormal&quot;&gt;&lt;font&gt;El usuario&lt;br&gt;debe seleccionar el producto que desea modificar de la lista de productos.&lt;/font&gt;&lt;/p&gt;&lt;p style=&quot;margin-left:18.0pt;line-height:normal&quot; class=&quot;MsoNormal&quot;&gt;&lt;font&gt;El sistema&lt;br&gt;debe mostrar al usuario los datos actuales del producto.&lt;/font&gt;&lt;/p&gt;&lt;p style=&quot;margin-left:18.0pt;line-height:normal&quot; class=&quot;MsoNormal&quot;&gt;&lt;font&gt;El usuario&lt;br&gt;puede modificar cualquier dato del producto (excepto el código único).&lt;/font&gt;&lt;/p&gt;&lt;p style=&quot;margin-left:18.0pt;line-height:normal&quot; class=&quot;MsoNormal&quot;&gt;&lt;font&gt;El sistema&lt;br&gt;debe validar los datos modificados por el usuario.&lt;/font&gt;&lt;/p&gt;&lt;p style=&quot;margin-left:18.0pt;line-height:normal&quot; class=&quot;MsoNormal&quot;&gt;&lt;font&gt;El sistema&lt;br&gt;debe guardar los cambios en un archivo de texto de acceso secuencial.&lt;/font&gt;&lt;/p&gt;&lt;p style=&quot;margin-left:18.0pt;line-height:normal&quot; class=&quot;MsoNormal&quot;&gt;&lt;font&gt;El sistema&lt;br&gt;debe mostrar un mensaje al usuario indicando que el producto se ha modificado&lt;br&gt;correctamente.&lt;/font&gt;&lt;/p&gt;" style="rounded=0;whiteSpace=wrap;html=1;align=left;fillColor=#dae8fc;strokeColor=#6c8ebf;" vertex="1" parent="1">
          <mxGeometry x="-2370" y="486" width="200" height="415" as="geometry" />
        </mxCell>
        <mxCell id="smJAxq2vNJxop1MBDMqk-89" style="edgeStyle=orthogonalEdgeStyle;rounded=0;orthogonalLoop=1;jettySize=auto;html=1;exitX=0.5;exitY=0;exitDx=0;exitDy=0;entryX=0.5;entryY=1;entryDx=0;entryDy=0;" edge="1" parent="1" source="ifA4q1T7cPtU3ayCD0aI-138" target="ifA4q1T7cPtU3ayCD0aI-61">
          <mxGeometry relative="1" as="geometry" />
        </mxCell>
        <mxCell id="ifA4q1T7cPtU3ayCD0aI-138" value="&lt;p style=&quot;margin-left:18.0pt;line-height:normal&quot; class=&quot;MsoNormal&quot;&gt;&lt;br&gt;&lt;/p&gt;&lt;p style=&quot;margin-left:18.0pt;line-height:normal&quot; class=&quot;MsoNormal&quot;&gt;&lt;font&gt;El sistema&lt;br&gt;debe permitir al usuario crear jerarquías de categorías (por ejemplo, ropa &amp;gt;&lt;br&gt;ropa de mujer &amp;gt; blusas).&lt;/font&gt;&lt;/p&gt;&lt;p style=&quot;margin-left:18.0pt;line-height:normal&quot; class=&quot;MsoNormal&quot;&gt;&lt;font&gt;El sistema&lt;br&gt;debe permitir al usuario asociar múltiples valores a una misma característica&lt;br&gt; (por ejemplo, color: rojo, azul, verde).&lt;/font&gt;&lt;/p&gt;&lt;p style=&quot;margin-left:18.0pt;line-height:normal&quot; class=&quot;MsoNormal&quot;&gt;&lt;font&gt;El sistema&lt;br&gt;debe permitir al usuario definir unidades de medida para las especificaciones&lt;br&gt;numéricas (por ejemplo, peso en kilogramos, altura en centímetros).&lt;/font&gt;&lt;/p&gt;" style="rounded=0;whiteSpace=wrap;html=1;align=left;fillColor=#dae8fc;strokeColor=#6c8ebf;" vertex="1" parent="1">
          <mxGeometry x="-2150" y="486" width="210" height="320" as="geometry" />
        </mxCell>
        <mxCell id="smJAxq2vNJxop1MBDMqk-77" style="edgeStyle=orthogonalEdgeStyle;rounded=0;orthogonalLoop=1;jettySize=auto;html=1;exitX=0.5;exitY=0;exitDx=0;exitDy=0;entryX=0.5;entryY=1;entryDx=0;entryDy=0;" edge="1" parent="1" source="ifA4q1T7cPtU3ayCD0aI-151" target="ifA4q1T7cPtU3ayCD0aI-154">
          <mxGeometry relative="1" as="geometry" />
        </mxCell>
        <mxCell id="ifA4q1T7cPtU3ayCD0aI-151" value="&lt;p style=&quot;margin-left:18.0pt&quot; class=&quot;MsoNormal&quot;&gt;&lt;font&gt;El usuario debe ingresar el&lt;br&gt;nombre del producto.&lt;/font&gt;&lt;/p&gt;&lt;p style=&quot;margin-left:18.0pt&quot; class=&quot;MsoNormal&quot;&gt;&lt;font&gt;El usuario debe seleccionar la&lt;br&gt;categoría del producto (debe existir una lista de categorías que se muestre en&lt;br&gt;esta opción).&lt;/font&gt;&lt;/p&gt;&lt;p style=&quot;margin-left:18.0pt&quot; class=&quot;MsoNormal&quot;&gt;&lt;font&gt;El usuario puede ingresar una&lt;br&gt;descripción del producto.&lt;/font&gt;&lt;/p&gt;&lt;p style=&quot;margin-left:18.0pt&quot; class=&quot;MsoNormal&quot;&gt;&lt;font&gt;El usuario puede ingresar las&lt;br&gt;características del producto (por ejemplo, color, talla, material).&lt;/font&gt;&lt;/p&gt;&lt;p style=&quot;margin-left:18.0pt&quot; class=&quot;MsoNormal&quot;&gt;&lt;font&gt;El usuario puede ingresar el&lt;br&gt;precio de venta del producto.&lt;/font&gt;&lt;/p&gt;&lt;p style=&quot;margin-left:18.0pt&quot; class=&quot;MsoNormal&quot;&gt;&lt;font&gt;El usuario puede ingresar la&lt;br&gt;cantidad inicial de stock del producto.&lt;/font&gt;&lt;/p&gt;&lt;p style=&quot;margin-left:18.0pt&quot; class=&quot;MsoNormal&quot;&gt;&lt;font&gt;El sistema debe validar los datos&lt;br&gt;ingresados por el usuario (por ejemplo, que el nombre del producto no esté&lt;br&gt;vacío, que la cantidad de stock sea un número positivo).&lt;/font&gt;&lt;/p&gt;&lt;p style=&quot;margin-left:18.0pt&quot; class=&quot;MsoNormal&quot;&gt;&lt;font&gt;El sistema debe generar un&lt;br&gt;identificador único para cada producto creado.&lt;/font&gt;&lt;/p&gt;&lt;p style=&quot;margin-left:18.0pt&quot; class=&quot;MsoNormal&quot;&gt;&lt;font&gt;El sistema debe guardar la&lt;br&gt;información del producto en un archivo de texto de acceso secuencial.&lt;/font&gt;&lt;/p&gt;&lt;p style=&quot;margin-left:18.0pt&quot; class=&quot;MsoNormal&quot;&gt;&lt;font&gt;El sistema debe mostrar un&lt;br&gt;mensaje al usuario indicando que el producto se ha creado correctamente.&lt;/font&gt;&lt;/p&gt;" style="rounded=0;whiteSpace=wrap;html=1;fillColor=#dae8fc;strokeColor=#6c8ebf;align=left;" vertex="1" parent="1">
          <mxGeometry x="-4010" y="475" width="230" height="608" as="geometry" />
        </mxCell>
        <mxCell id="smJAxq2vNJxop1MBDMqk-78" style="edgeStyle=orthogonalEdgeStyle;rounded=0;orthogonalLoop=1;jettySize=auto;html=1;exitX=0.5;exitY=0;exitDx=0;exitDy=0;entryX=0.5;entryY=1;entryDx=0;entryDy=0;" edge="1" parent="1" source="ifA4q1T7cPtU3ayCD0aI-152" target="ifA4q1T7cPtU3ayCD0aI-153">
          <mxGeometry relative="1" as="geometry" />
        </mxCell>
        <mxCell id="ifA4q1T7cPtU3ayCD0aI-152" value="&lt;p style=&quot;margin-left:18.0pt&quot; class=&quot;MsoNormal&quot;&gt;&lt;font&gt;El usuario debe seleccionar el&lt;br&gt;producto que desea eliminar de la lista de productos.&lt;/font&gt;&lt;/p&gt;&lt;p style=&quot;margin-left:18.0pt&quot; class=&quot;MsoNormal&quot;&gt;&lt;font&gt;El sistema debe mostrar una&lt;br&gt;confirmación al usuario para asegurarse de que desea eliminar el producto.&lt;/font&gt;&lt;/p&gt;&lt;p style=&quot;margin-left:18.0pt&quot; class=&quot;MsoNormal&quot;&gt;&lt;font&gt;Si el usuario confirma la&lt;br&gt;eliminación, el sistema debe eliminar el producto del archivo de texto de&lt;br&gt;acceso secuencial.&lt;/font&gt;&lt;/p&gt;&lt;p style=&quot;margin-left:18.0pt&quot; class=&quot;MsoNormal&quot;&gt;&lt;font&gt;El sistema debe mostrar un&lt;br&gt;mensaje al usuario indicando que el producto se ha eliminado correctamente.&lt;/font&gt;&lt;/p&gt;" style="rounded=0;whiteSpace=wrap;html=1;align=left;fillColor=#dae8fc;strokeColor=#6c8ebf;" vertex="1" parent="1">
          <mxGeometry x="-3720" y="475" width="200" height="310" as="geometry" />
        </mxCell>
        <mxCell id="smJAxq2vNJxop1MBDMqk-80" style="edgeStyle=orthogonalEdgeStyle;rounded=0;orthogonalLoop=1;jettySize=auto;html=1;exitX=0.5;exitY=0;exitDx=0;exitDy=0;entryX=0.5;entryY=1;entryDx=0;entryDy=0;" edge="1" parent="1" source="ifA4q1T7cPtU3ayCD0aI-153" target="ifA4q1T7cPtU3ayCD0aI-155">
          <mxGeometry relative="1" as="geometry" />
        </mxCell>
        <mxCell id="ifA4q1T7cPtU3ayCD0aI-153" value="&lt;span id=&quot;docs-internal-guid-b9bb647c-7fff-f746-c891-ee42af87f507&quot;&gt;&lt;span style=&quot;font-family: Arial, sans-serif; background-color: transparent; font-variant-numeric: normal; font-variant-east-asian: normal; font-variant-alternates: normal; font-variant-position: normal; vertical-align: baseline; white-space-collapse: preserve;&quot;&gt;&lt;font style=&quot;font-size: 12px;&quot;&gt;Alta de Productos&lt;/font&gt;&lt;/span&gt;&lt;/span&gt;" style="rounded=0;whiteSpace=wrap;html=1;align=center;fillColor=#dae8fc;strokeColor=#6c8ebf;" vertex="1" parent="1">
          <mxGeometry x="-3680" y="370" width="120" height="60" as="geometry" />
        </mxCell>
        <mxCell id="smJAxq2vNJxop1MBDMqk-79" style="edgeStyle=orthogonalEdgeStyle;rounded=0;orthogonalLoop=1;jettySize=auto;html=1;exitX=0.5;exitY=0;exitDx=0;exitDy=0;entryX=0.5;entryY=1;entryDx=0;entryDy=0;" edge="1" parent="1" source="ifA4q1T7cPtU3ayCD0aI-154" target="ifA4q1T7cPtU3ayCD0aI-155">
          <mxGeometry relative="1" as="geometry" />
        </mxCell>
        <mxCell id="ifA4q1T7cPtU3ayCD0aI-154" value="&lt;span id=&quot;docs-internal-guid-b9bb647c-7fff-f746-c891-ee42af87f507&quot;&gt;&lt;span style=&quot;font-family: Arial, sans-serif; background-color: transparent; font-variant-numeric: normal; font-variant-east-asian: normal; font-variant-alternates: normal; font-variant-position: normal; vertical-align: baseline; white-space-collapse: preserve;&quot;&gt;&lt;font style=&quot;font-size: 12px;&quot;&gt;Alta de Productos&lt;/font&gt;&lt;/span&gt;&lt;/span&gt;" style="rounded=0;whiteSpace=wrap;html=1;align=center;fillColor=#dae8fc;strokeColor=#6c8ebf;" vertex="1" parent="1">
          <mxGeometry x="-3955" y="370" width="120" height="60" as="geometry" />
        </mxCell>
        <mxCell id="smJAxq2vNJxop1MBDMqk-147" style="edgeStyle=orthogonalEdgeStyle;rounded=0;orthogonalLoop=1;jettySize=auto;html=1;exitX=0.5;exitY=0;exitDx=0;exitDy=0;" edge="1" parent="1" source="ifA4q1T7cPtU3ayCD0aI-155" target="ifA4q1T7cPtU3ayCD0aI-3">
          <mxGeometry relative="1" as="geometry" />
        </mxCell>
        <mxCell id="ifA4q1T7cPtU3ayCD0aI-155" value="&lt;span id=&quot;docs-internal-guid-7e5b880c-7fff-3856-84e9-59a129e8e026&quot;&gt;&lt;span style=&quot;font-family: Arial, sans-serif; background-color: transparent; font-variant-numeric: normal; font-variant-east-asian: normal; font-variant-alternates: normal; font-variant-position: normal; vertical-align: baseline; white-space-collapse: preserve;&quot;&gt;&lt;font style=&quot;font-size: 12px;&quot;&gt;Alta, baja y modificación de productos.&lt;/font&gt;&lt;/span&gt;&lt;/span&gt;" style="rounded=0;whiteSpace=wrap;html=1;align=center;fillColor=#dae8fc;strokeColor=#6c8ebf;" vertex="1" parent="1">
          <mxGeometry x="-3820" y="254" width="120" height="60" as="geometry" />
        </mxCell>
        <mxCell id="smJAxq2vNJxop1MBDMqk-155" style="edgeStyle=orthogonalEdgeStyle;rounded=0;orthogonalLoop=1;jettySize=auto;html=1;exitX=0.5;exitY=0;exitDx=0;exitDy=0;" edge="1" parent="1" source="smJAxq2vNJxop1MBDMqk-3" target="ifA4q1T7cPtU3ayCD0aI-2">
          <mxGeometry relative="1" as="geometry" />
        </mxCell>
        <mxCell id="smJAxq2vNJxop1MBDMqk-3" value="Control de Existencias&amp;nbsp;" style="rounded=0;whiteSpace=wrap;html=1;fillColor=#d5e8d4;strokeColor=#82b366;" vertex="1" parent="1">
          <mxGeometry x="-1361" y="110" width="120" height="60" as="geometry" />
        </mxCell>
        <mxCell id="smJAxq2vNJxop1MBDMqk-142" style="edgeStyle=orthogonalEdgeStyle;rounded=0;orthogonalLoop=1;jettySize=auto;html=1;exitX=0.5;exitY=0;exitDx=0;exitDy=0;" edge="1" parent="1" source="smJAxq2vNJxop1MBDMqk-4" target="smJAxq2vNJxop1MBDMqk-3">
          <mxGeometry relative="1" as="geometry" />
        </mxCell>
        <mxCell id="smJAxq2vNJxop1MBDMqk-4" value="&lt;span id=&quot;docs-internal-guid-0bfc275f-7fff-4375-56a2-c0b99b01688d&quot;&gt;&lt;span style=&quot;font-family: Arial, sans-serif; background-color: transparent; font-variant-numeric: normal; font-variant-east-asian: normal; font-variant-alternates: normal; font-variant-position: normal; vertical-align: baseline; white-space-collapse: preserve;&quot;&gt;&lt;font style=&quot;font-size: 12px;&quot;&gt;Actualización automática del stock en función de las ventas y compras.&lt;/font&gt;&lt;/span&gt;&lt;/span&gt;" style="rounded=0;whiteSpace=wrap;html=1;fillColor=#d5e8d4;strokeColor=#82b366;" vertex="1" parent="1">
          <mxGeometry x="-1527.5" y="288" width="120" height="60" as="geometry" />
        </mxCell>
        <mxCell id="smJAxq2vNJxop1MBDMqk-105" style="edgeStyle=orthogonalEdgeStyle;rounded=0;orthogonalLoop=1;jettySize=auto;html=1;exitX=0.5;exitY=0;exitDx=0;exitDy=0;entryX=0.5;entryY=1;entryDx=0;entryDy=0;" edge="1" parent="1" source="smJAxq2vNJxop1MBDMqk-5" target="smJAxq2vNJxop1MBDMqk-3">
          <mxGeometry relative="1" as="geometry" />
        </mxCell>
        <mxCell id="smJAxq2vNJxop1MBDMqk-5" value="&lt;span id=&quot;docs-internal-guid-3074f23c-7fff-06cd-805e-6ff5ce3f088e&quot;&gt;&lt;span style=&quot;font-family: Arial, sans-serif; background-color: transparent; font-variant-numeric: normal; font-variant-east-asian: normal; font-variant-alternates: normal; font-variant-position: normal; vertical-align: baseline; white-space-collapse: preserve;&quot;&gt;&lt;font style=&quot;font-size: 12px;&quot;&gt;Registro de la cantidad de productos en stock.&lt;/font&gt;&lt;/span&gt;&lt;/span&gt;" style="rounded=0;whiteSpace=wrap;html=1;fillColor=#d5e8d4;strokeColor=#82b366;" vertex="1" parent="1">
          <mxGeometry x="-1800" y="288" width="125" height="60" as="geometry" />
        </mxCell>
        <mxCell id="smJAxq2vNJxop1MBDMqk-98" style="edgeStyle=orthogonalEdgeStyle;rounded=0;orthogonalLoop=1;jettySize=auto;html=1;exitX=0.5;exitY=0;exitDx=0;exitDy=0;entryX=0.5;entryY=1;entryDx=0;entryDy=0;" edge="1" parent="1" source="smJAxq2vNJxop1MBDMqk-6" target="smJAxq2vNJxop1MBDMqk-5">
          <mxGeometry relative="1" as="geometry" />
        </mxCell>
        <mxCell id="smJAxq2vNJxop1MBDMqk-6" value="&lt;span id=&quot;docs-internal-guid-521ce19e-7fff-e918-7680-221614360bff&quot;&gt;&lt;span style=&quot;font-family: Arial, sans-serif; background-color: transparent; font-variant-numeric: normal; font-variant-east-asian: normal; font-variant-alternates: normal; font-variant-position: normal; vertical-align: baseline; white-space-collapse: preserve;&quot;&gt;&lt;font style=&quot;font-size: 12px;&quot;&gt;Registro de Entrada de Productos&lt;/font&gt;&lt;/span&gt;&lt;/span&gt;" style="rounded=0;whiteSpace=wrap;html=1;fillColor=#d5e8d4;strokeColor=#82b366;" vertex="1" parent="1">
          <mxGeometry x="-1800" y="397" width="125" height="60" as="geometry" />
        </mxCell>
        <mxCell id="smJAxq2vNJxop1MBDMqk-7" value="&lt;span id=&quot;docs-internal-guid-bd9cb714-7fff-7251-b6b4-c889be956e56&quot;&gt;&lt;span style=&quot;font-family: Arial, sans-serif; background-color: transparent; font-variant-numeric: normal; font-variant-east-asian: normal; font-variant-alternates: normal; font-variant-position: normal; vertical-align: baseline; white-space-collapse: preserve;&quot;&gt;&lt;font style=&quot;font-size: 12px;&quot;&gt;Registro de Salida de Productos&lt;/font&gt;&lt;/span&gt;&lt;/span&gt;" style="rounded=0;whiteSpace=wrap;html=1;fillColor=#d5e8d4;strokeColor=#82b366;" vertex="1" parent="1">
          <mxGeometry x="-1530" y="397" width="125" height="60" as="geometry" />
        </mxCell>
        <mxCell id="smJAxq2vNJxop1MBDMqk-102" style="edgeStyle=orthogonalEdgeStyle;rounded=0;orthogonalLoop=1;jettySize=auto;html=1;exitX=0.5;exitY=0;exitDx=0;exitDy=0;entryX=0.5;entryY=1;entryDx=0;entryDy=0;" edge="1" parent="1" source="smJAxq2vNJxop1MBDMqk-8" target="smJAxq2vNJxop1MBDMqk-3">
          <mxGeometry relative="1" as="geometry" />
        </mxCell>
        <mxCell id="smJAxq2vNJxop1MBDMqk-8" value="&lt;span id=&quot;docs-internal-guid-61c39f6e-7fff-7b34-3749-c42951198484&quot;&gt;&lt;span style=&quot;font-family: Arial, sans-serif; background-color: transparent; font-variant-numeric: normal; font-variant-east-asian: normal; font-variant-alternates: normal; font-variant-position: normal; vertical-align: baseline; white-space-collapse: preserve;&quot;&gt;Generación de alertas de stock bajo.&lt;/span&gt;&lt;/span&gt;" style="rounded=0;whiteSpace=wrap;html=1;fillColor=#d5e8d4;strokeColor=#82b366;" vertex="1" parent="1">
          <mxGeometry x="-1241" y="288" width="120" height="60" as="geometry" />
        </mxCell>
        <mxCell id="smJAxq2vNJxop1MBDMqk-101" style="edgeStyle=orthogonalEdgeStyle;rounded=0;orthogonalLoop=1;jettySize=auto;html=1;exitX=0.5;exitY=0;exitDx=0;exitDy=0;entryX=0.5;entryY=1;entryDx=0;entryDy=0;" edge="1" parent="1" source="smJAxq2vNJxop1MBDMqk-9" target="smJAxq2vNJxop1MBDMqk-8">
          <mxGeometry relative="1" as="geometry" />
        </mxCell>
        <mxCell id="smJAxq2vNJxop1MBDMqk-9" value="&lt;span id=&quot;docs-internal-guid-e5963888-7fff-4491-0f52-1f6ae0faafae&quot;&gt;&lt;span style=&quot;font-family: Arial, sans-serif; background-color: transparent; font-variant-numeric: normal; font-variant-east-asian: normal; font-variant-alternates: normal; font-variant-position: normal; vertical-align: baseline; white-space-collapse: preserve;&quot;&gt;&lt;font style=&quot;font-size: 12px;&quot;&gt;Generación de Alertas de Stock Bajo&lt;/font&gt;&lt;/span&gt;&lt;/span&gt;" style="rounded=0;whiteSpace=wrap;html=1;fillColor=#d5e8d4;strokeColor=#82b366;align=center;" vertex="1" parent="1">
          <mxGeometry x="-1240" y="387" width="120" height="60" as="geometry" />
        </mxCell>
        <mxCell id="smJAxq2vNJxop1MBDMqk-107" style="edgeStyle=orthogonalEdgeStyle;rounded=0;orthogonalLoop=1;jettySize=auto;html=1;exitX=0.5;exitY=0;exitDx=0;exitDy=0;entryX=0.5;entryY=1;entryDx=0;entryDy=0;" edge="1" parent="1" source="smJAxq2vNJxop1MBDMqk-10" target="smJAxq2vNJxop1MBDMqk-3">
          <mxGeometry relative="1" as="geometry" />
        </mxCell>
        <mxCell id="smJAxq2vNJxop1MBDMqk-10" value="&lt;span id=&quot;docs-internal-guid-f59797bc-7fff-afb5-2489-0fb6a54099af&quot;&gt;&lt;span style=&quot;font-family: Arial, sans-serif; background-color: transparent; font-variant-numeric: normal; font-variant-east-asian: normal; font-variant-alternates: normal; font-variant-position: normal; vertical-align: baseline; white-space-collapse: preserve;&quot;&gt;Visualización del historial de movimientos de stock.&lt;/span&gt;&lt;/span&gt;" style="rounded=0;whiteSpace=wrap;html=1;fillColor=#d5e8d4;strokeColor=#82b366;" vertex="1" parent="1">
          <mxGeometry x="-970" y="288" width="120" height="60" as="geometry" />
        </mxCell>
        <mxCell id="smJAxq2vNJxop1MBDMqk-104" style="edgeStyle=orthogonalEdgeStyle;rounded=0;orthogonalLoop=1;jettySize=auto;html=1;exitX=0.5;exitY=0;exitDx=0;exitDy=0;entryX=0.5;entryY=1;entryDx=0;entryDy=0;" edge="1" parent="1" source="smJAxq2vNJxop1MBDMqk-11" target="smJAxq2vNJxop1MBDMqk-10">
          <mxGeometry relative="1" as="geometry" />
        </mxCell>
        <mxCell id="smJAxq2vNJxop1MBDMqk-11" value="&lt;span id=&quot;docs-internal-guid-9444c697-7fff-167f-375f-8fe80c3f1b7d&quot;&gt;&lt;span style=&quot;font-family: Arial, sans-serif; background-color: transparent; font-variant-numeric: normal; font-variant-east-asian: normal; font-variant-alternates: normal; font-variant-position: normal; vertical-align: baseline; white-space-collapse: preserve;&quot;&gt;&lt;font style=&quot;font-size: 12px;&quot;&gt;Visualización del Historial de Movimientos de Stock&lt;/font&gt;&lt;/span&gt;&lt;/span&gt;" style="rounded=0;whiteSpace=wrap;html=1;fillColor=#d5e8d4;strokeColor=#82b366;" vertex="1" parent="1">
          <mxGeometry x="-970" y="384" width="120" height="60" as="geometry" />
        </mxCell>
        <mxCell id="smJAxq2vNJxop1MBDMqk-103" style="edgeStyle=orthogonalEdgeStyle;rounded=0;orthogonalLoop=1;jettySize=auto;html=1;exitX=0.5;exitY=0;exitDx=0;exitDy=0;entryX=0.5;entryY=1;entryDx=0;entryDy=0;" edge="1" parent="1" source="smJAxq2vNJxop1MBDMqk-12" target="smJAxq2vNJxop1MBDMqk-11">
          <mxGeometry relative="1" as="geometry" />
        </mxCell>
        <mxCell id="smJAxq2vNJxop1MBDMqk-12" value="&lt;p style=&quot;margin-left:18.0pt;line-height:normal&quot; class=&quot;MsoNormal&quot;&gt;&lt;font&gt;El usuario&lt;br&gt;debe seleccionar un producto de la lista de productos.&lt;/font&gt;&lt;/p&gt;&lt;p style=&quot;margin-left:18.0pt;line-height:normal&quot; class=&quot;MsoNormal&quot;&gt;&lt;font&gt;El sistema&lt;br&gt;debe mostrar el historial de movimientos de stock del producto seleccionado.&lt;/font&gt;&lt;/p&gt;&lt;p style=&quot;margin-left:18.0pt;line-height:normal&quot; class=&quot;MsoNormal&quot;&gt;&lt;font&gt;El historial&lt;br&gt;de movimientos debe incluir la fecha, la hora, la operación realizada (entrada&lt;br&gt;o salida), la cantidad de productos y el usuario que realizó la operación.&lt;/font&gt;&lt;/p&gt;" style="rounded=0;whiteSpace=wrap;html=1;fillColor=#d5e8d4;strokeColor=#82b366;align=left;" vertex="1" parent="1">
          <mxGeometry x="-1020" y="483" width="220" height="247" as="geometry" />
        </mxCell>
        <mxCell id="smJAxq2vNJxop1MBDMqk-100" style="edgeStyle=orthogonalEdgeStyle;rounded=0;orthogonalLoop=1;jettySize=auto;html=1;exitX=0.5;exitY=0;exitDx=0;exitDy=0;entryX=0.5;entryY=1;entryDx=0;entryDy=0;" edge="1" parent="1" source="smJAxq2vNJxop1MBDMqk-13" target="smJAxq2vNJxop1MBDMqk-9">
          <mxGeometry relative="1" as="geometry" />
        </mxCell>
        <mxCell id="smJAxq2vNJxop1MBDMqk-13" value="&lt;p style=&quot;margin-left:18.0pt;line-height:normal&quot; class=&quot;MsoNormal&quot;&gt;&lt;font&gt;El sistema&lt;br&gt;debe verificar el nivel de stock de cada producto periódicamente.&lt;/font&gt;&lt;/p&gt;&lt;p style=&quot;margin-left:18.0pt;line-height:normal&quot; class=&quot;MsoNormal&quot;&gt;&lt;font&gt;Si el nivel de&lt;br&gt;stock de un producto es menor o igual al punto de reorden, el sistema debe&lt;br&gt;generar una alerta de stock bajo.&lt;/font&gt;&lt;/p&gt;&lt;p style=&quot;margin-left:18.0pt;line-height:normal&quot; class=&quot;MsoNormal&quot;&gt;&lt;font&gt;La alerta de&lt;br&gt;stock bajo debe ser mostrada al usuario por medio de una notificación.&lt;/font&gt;&lt;/p&gt;&lt;p style=&quot;margin-left:18.0pt;line-height:normal&quot; class=&quot;MsoNormal&quot;&gt;&lt;font&gt;La alerta debe&lt;br&gt;incluir el nombre del producto, el nivel de stock actual y el punto de reorden.&lt;/font&gt;&lt;/p&gt;" style="rounded=0;whiteSpace=wrap;html=1;fillColor=#d5e8d4;strokeColor=#82b366;align=left;" vertex="1" parent="1">
          <mxGeometry x="-1296" y="483" width="230" height="260" as="geometry" />
        </mxCell>
        <mxCell id="smJAxq2vNJxop1MBDMqk-97" style="edgeStyle=orthogonalEdgeStyle;rounded=0;orthogonalLoop=1;jettySize=auto;html=1;exitX=0.5;exitY=0;exitDx=0;exitDy=0;entryX=0.5;entryY=1;entryDx=0;entryDy=0;" edge="1" parent="1" source="smJAxq2vNJxop1MBDMqk-14" target="smJAxq2vNJxop1MBDMqk-7">
          <mxGeometry relative="1" as="geometry" />
        </mxCell>
        <mxCell id="smJAxq2vNJxop1MBDMqk-14" value="&lt;p style=&quot;margin-left:18.0pt;line-height:normal&quot; class=&quot;MsoNormal&quot;&gt;&lt;font&gt;El usuario&lt;br&gt;debe ingresar el código del producto.&lt;/font&gt;&lt;/p&gt;&lt;p style=&quot;margin-left:18.0pt;line-height:normal&quot; class=&quot;MsoNormal&quot;&gt;&lt;font&gt;El sistema&lt;br&gt;debe buscar el producto en el archivo de texto de acceso secuencial.&lt;/font&gt;&lt;/p&gt;&lt;p style=&quot;margin-left:18.0pt;line-height:normal&quot; class=&quot;MsoNormal&quot;&gt;&lt;font&gt;Si el producto&lt;br&gt;no existe, el sistema debe mostrar un mensaje al usuario indicando que el&lt;br&gt;producto no está registrado.&lt;/font&gt;&lt;/p&gt;&lt;p style=&quot;margin-left:18.0pt;line-height:normal&quot; class=&quot;MsoNormal&quot;&gt;&lt;font&gt;Si el producto&lt;br&gt;existe, el sistema debe solicitar al usuario la cantidad de productos que desea&lt;br&gt;Vendedor.&lt;/font&gt;&lt;/p&gt;&lt;p style=&quot;margin-left:18.0pt;line-height:normal&quot; class=&quot;MsoNormal&quot;&gt;&lt;font&gt;El sistema&lt;br&gt;debe verificar si la cantidad de productos que se desea vender es menor o igual&lt;br&gt;a la cantidad de stock disponible.&lt;/font&gt;&lt;/p&gt;&lt;p style=&quot;margin-left:18.0pt;line-height:normal&quot; class=&quot;MsoNormal&quot;&gt;&lt;font&gt;Si la cantidad&lt;br&gt;de productos es mayor que la cantidad de stock disponible, el sistema debe&lt;br&gt;mostrar un mensaje al usuario indicando que no hay suficiente stock para&lt;br&gt;realizar la venta.&lt;/font&gt;&lt;/p&gt;&lt;p style=&quot;margin-left:18.0pt;line-height:normal&quot; class=&quot;MsoNormal&quot;&gt;&lt;font&gt;Si la cantidad&lt;br&gt;de productos es menor o igual a la cantidad de stock disponible, el sistema&lt;br&gt;debe actualizar la cantidad de stock del producto en el archivo de texto de&lt;br&gt;acceso secuencial.&lt;/font&gt;&lt;/p&gt;&lt;p style=&quot;margin-left:18.0pt;line-height:normal&quot; class=&quot;MsoNormal&quot;&gt;&lt;font&gt;El sistema&lt;br&gt;debe generar un registro de la venta, incluyendo la fecha, la hora, el producto&lt;br&gt;vendido y la cantidad.&lt;/font&gt;&lt;/p&gt;&lt;p style=&quot;margin-left:18.0pt;line-height:normal&quot; class=&quot;MsoNormal&quot;&gt;&lt;font&gt;El sistema&lt;br&gt;debe mostrar un mensaje al usuario indicando que la venta se ha realizado&lt;br&gt;correctamente.&lt;/font&gt;&lt;/p&gt;" style="rounded=0;whiteSpace=wrap;html=1;fillColor=#d5e8d4;strokeColor=#82b366;align=left;" vertex="1" parent="1">
          <mxGeometry x="-1590" y="483" width="250" height="600" as="geometry" />
        </mxCell>
        <mxCell id="smJAxq2vNJxop1MBDMqk-96" style="edgeStyle=orthogonalEdgeStyle;rounded=0;orthogonalLoop=1;jettySize=auto;html=1;exitX=0.5;exitY=0;exitDx=0;exitDy=0;entryX=0.5;entryY=1;entryDx=0;entryDy=0;" edge="1" parent="1" source="smJAxq2vNJxop1MBDMqk-15" target="smJAxq2vNJxop1MBDMqk-6">
          <mxGeometry relative="1" as="geometry" />
        </mxCell>
        <mxCell id="smJAxq2vNJxop1MBDMqk-15" value="&lt;p style=&quot;margin-left:18.0pt;line-height:normal&quot; class=&quot;MsoNormal&quot;&gt;&lt;font&gt;El usuario&lt;br&gt;debe ingresar el código del producto.&lt;/font&gt;&lt;/p&gt;&lt;p style=&quot;margin-left:18.0pt;line-height:normal&quot; class=&quot;MsoNormal&quot;&gt;&lt;font&gt;El sistema&lt;br&gt;debe buscar el producto en el archivo de productos.&lt;/font&gt;&lt;/p&gt;&lt;p style=&quot;margin-left:18.0pt;line-height:normal&quot; class=&quot;MsoNormal&quot;&gt;&lt;font&gt;Si el producto&lt;br&gt;no existe, el sistema debe mostrar un mensaje al usuario indicando que el&lt;br&gt;producto no está registrado.&lt;/font&gt;&lt;/p&gt;&lt;p style=&quot;margin-left:18.0pt;line-height:normal&quot; class=&quot;MsoNormal&quot;&gt;&lt;font&gt;Si el producto&lt;br&gt;existe, el sistema debe solicitar al usuario la cantidad de productos que desea&lt;br&gt;ingresar.&lt;/font&gt;&lt;/p&gt;&lt;p style=&quot;margin-left:18.0pt;line-height:normal&quot; class=&quot;MsoNormal&quot;&gt;&lt;font&gt;El sistema&lt;br&gt;debe actualizar la cantidad de stock del producto en un archivo de texto de&lt;br&gt;acceso secuencial.&lt;/font&gt;&lt;/p&gt;&lt;p style=&quot;margin-left:18.0pt;line-height:normal&quot; class=&quot;MsoNormal&quot;&gt;&lt;font&gt;El sistema&lt;br&gt;debe mostrar un mensaje al usuario indicando que la entrada de productos se ha&lt;br&gt;realizado correctamente.&lt;/font&gt;&lt;/p&gt;" style="rounded=0;whiteSpace=wrap;html=1;fillColor=#d5e8d4;strokeColor=#82b366;align=left;" vertex="1" parent="1">
          <mxGeometry x="-1860" y="483" width="225" height="440" as="geometry" />
        </mxCell>
        <mxCell id="smJAxq2vNJxop1MBDMqk-156" style="edgeStyle=orthogonalEdgeStyle;rounded=0;orthogonalLoop=1;jettySize=auto;html=1;exitX=0.5;exitY=0;exitDx=0;exitDy=0;" edge="1" parent="1" source="smJAxq2vNJxop1MBDMqk-45" target="ifA4q1T7cPtU3ayCD0aI-2">
          <mxGeometry relative="1" as="geometry" />
        </mxCell>
        <mxCell id="smJAxq2vNJxop1MBDMqk-45" value="Pedidos de Compra&amp;nbsp;" style="rounded=0;whiteSpace=wrap;html=1;fillColor=#ffe6cc;strokeColor=#d79b00;" vertex="1" parent="1">
          <mxGeometry x="-310" y="139" width="120" height="60" as="geometry" />
        </mxCell>
        <mxCell id="smJAxq2vNJxop1MBDMqk-138" style="edgeStyle=orthogonalEdgeStyle;rounded=0;orthogonalLoop=1;jettySize=auto;html=1;exitX=0.5;exitY=0;exitDx=0;exitDy=0;" edge="1" parent="1" source="smJAxq2vNJxop1MBDMqk-46" target="smJAxq2vNJxop1MBDMqk-45">
          <mxGeometry relative="1" as="geometry" />
        </mxCell>
        <mxCell id="smJAxq2vNJxop1MBDMqk-46" value="&lt;span id=&quot;docs-internal-guid-e91930dd-7fff-6b24-2fe9-a047319843fc&quot;&gt;&lt;span style=&quot;font-family: Arial, sans-serif; background-color: transparent; font-variant-numeric: normal; font-variant-east-asian: normal; font-variant-alternates: normal; font-variant-position: normal; vertical-align: baseline; white-space-collapse: preserve;&quot;&gt;Creación y gestión de pedidos de compra a proveedores.&lt;/span&gt;&lt;/span&gt;" style="rounded=0;whiteSpace=wrap;html=1;fillColor=#ffe6cc;strokeColor=#d79b00;" vertex="1" parent="1">
          <mxGeometry x="-590" y="274.5" width="120" height="60" as="geometry" />
        </mxCell>
        <mxCell id="smJAxq2vNJxop1MBDMqk-109" style="edgeStyle=orthogonalEdgeStyle;rounded=0;orthogonalLoop=1;jettySize=auto;html=1;exitX=0.5;exitY=0;exitDx=0;exitDy=0;entryX=0.5;entryY=1;entryDx=0;entryDy=0;" edge="1" parent="1" source="smJAxq2vNJxop1MBDMqk-47" target="smJAxq2vNJxop1MBDMqk-46">
          <mxGeometry relative="1" as="geometry" />
        </mxCell>
        <mxCell id="smJAxq2vNJxop1MBDMqk-47" value="&lt;span id=&quot;docs-internal-guid-508fa692-7fff-2e2f-b41e-79cabdf0a126&quot;&gt;&lt;span style=&quot;font-family: Arial, sans-serif; background-color: transparent; font-variant-numeric: normal; font-variant-east-asian: normal; font-variant-alternates: normal; font-variant-position: normal; vertical-align: baseline; white-space-collapse: preserve;&quot;&gt;&lt;font style=&quot;font-size: 12px;&quot;&gt;Creación de Pedidos de Compra&lt;/font&gt;&lt;/span&gt;&lt;/span&gt;" style="rounded=0;whiteSpace=wrap;html=1;fillColor=#ffe6cc;strokeColor=#d79b00;" vertex="1" parent="1">
          <mxGeometry x="-690" y="397.5" width="120" height="60" as="geometry" />
        </mxCell>
        <mxCell id="smJAxq2vNJxop1MBDMqk-108" style="edgeStyle=orthogonalEdgeStyle;rounded=0;orthogonalLoop=1;jettySize=auto;html=1;exitX=0.5;exitY=0;exitDx=0;exitDy=0;entryX=0.5;entryY=1;entryDx=0;entryDy=0;" edge="1" parent="1" source="smJAxq2vNJxop1MBDMqk-48" target="smJAxq2vNJxop1MBDMqk-47">
          <mxGeometry relative="1" as="geometry" />
        </mxCell>
        <mxCell id="smJAxq2vNJxop1MBDMqk-48" value="&lt;p style=&quot;margin-left:18.0pt;line-height:normal&quot; class=&quot;MsoNormal&quot;&gt;&lt;font&gt;El usuario&lt;br&gt;debe seleccionar el proveedor al que desea realizar el pedido.&lt;/font&gt;&lt;/p&gt;&lt;p style=&quot;margin-left:18.0pt;line-height:normal&quot; class=&quot;MsoNormal&quot;&gt;&lt;font&gt;El usuario&lt;br&gt;debe seleccionar los productos que desea comprar del proveedor.&lt;/font&gt;&lt;/p&gt;&lt;p style=&quot;margin-left:18.0pt;line-height:normal&quot; class=&quot;MsoNormal&quot;&gt;&lt;font&gt;El usuario&lt;br&gt;debe ingresar la cantidad de cada producto que desea comprar.&lt;/font&gt;&lt;/p&gt;&lt;p style=&quot;margin-left:18.0pt;line-height:normal&quot; class=&quot;MsoNormal&quot;&gt;&lt;font&gt;El sistema&lt;br&gt;debe calcular el total del pedido.&lt;/font&gt;&lt;/p&gt;&lt;p style=&quot;margin-left:18.0pt;line-height:normal&quot; class=&quot;MsoNormal&quot;&gt;&lt;font&gt;El usuario&lt;br&gt;debe confirmar el pedido.&lt;/font&gt;&lt;/p&gt;&lt;p style=&quot;margin-left:18.0pt;line-height:normal&quot; class=&quot;MsoNormal&quot;&gt;&lt;font&gt;El sistema&lt;br&gt;debe guardar el pedido en un archivo de texto de acceso secuencial.&lt;/font&gt;&lt;/p&gt;&lt;p style=&quot;margin-left:18.0pt;line-height:normal&quot; class=&quot;MsoNormal&quot;&gt;&lt;font&gt;El sistema&lt;br&gt;debe generar un código único para cada pedido.&lt;/font&gt;&lt;/p&gt;&lt;p style=&quot;margin-left:18.0pt;line-height:normal&quot; class=&quot;MsoNormal&quot;&gt;&lt;font&gt;El sistema&lt;br&gt;debe mostrar un mensaje al usuario indicando que el pedido se ha creado&lt;br&gt;correctamente.&lt;/font&gt;&lt;/p&gt;" style="rounded=0;whiteSpace=wrap;html=1;fillColor=#ffe6cc;strokeColor=#d79b00;align=left;" vertex="1" parent="1">
          <mxGeometry x="-730" y="497.5" width="200" height="497" as="geometry" />
        </mxCell>
        <mxCell id="smJAxq2vNJxop1MBDMqk-110" style="edgeStyle=orthogonalEdgeStyle;rounded=0;orthogonalLoop=1;jettySize=auto;html=1;exitX=0.5;exitY=0;exitDx=0;exitDy=0;entryX=0.5;entryY=1;entryDx=0;entryDy=0;" edge="1" parent="1" source="smJAxq2vNJxop1MBDMqk-49" target="smJAxq2vNJxop1MBDMqk-51">
          <mxGeometry relative="1" as="geometry" />
        </mxCell>
        <mxCell id="smJAxq2vNJxop1MBDMqk-49" value="&lt;p style=&quot;margin-left:18.0pt;line-height:normal&quot; class=&quot;MsoNormal&quot;&gt;&lt;font&gt;El usuario&lt;br&gt;debe visualizar una lista de todos los pedidos de compra creados.&lt;/font&gt;&lt;/p&gt;&lt;p style=&quot;margin-left:18.0pt;line-height:normal&quot; class=&quot;MsoNormal&quot;&gt;&lt;font&gt;El usuario&lt;br&gt;debe poder filtrar los pedidos por proveedor, fecha, estado (pendiente, en&lt;br&gt;curso, completado) o producto.&lt;/font&gt;&lt;/p&gt;&lt;p style=&quot;margin-left:18.0pt;line-height:normal&quot; class=&quot;MsoNormal&quot;&gt;&lt;font&gt;El usuario&lt;br&gt;debe poder seleccionar un pedido de compra para ver sus detalles.&lt;/font&gt;&lt;/p&gt;&lt;p style=&quot;margin-left:18.0pt;line-height:normal&quot; class=&quot;MsoNormal&quot;&gt;&lt;font&gt;Los detalles&lt;br&gt;del pedido deben incluir el proveedor, la fecha de creación, la fecha de&lt;br&gt;entrega estimada, los productos solicitados, la cantidad de cada producto y el&lt;br&gt;total del pedido.&lt;/font&gt;&lt;/p&gt;&lt;p style=&quot;margin-left:18.0pt;line-height:normal&quot; class=&quot;MsoNormal&quot;&gt;&lt;font&gt;El usuario&lt;br&gt;debe poder modificar el estado del pedido (pendiente, en curso, completado).&lt;/font&gt;&lt;/p&gt;&lt;p style=&quot;margin-left:18.0pt;line-height:normal&quot; class=&quot;MsoNormal&quot;&gt;&lt;font&gt;El usuario&lt;br&gt;debe poder cancelar un pedido de compra si aún no ha sido enviado por el&lt;br&gt;proveedor.&lt;/font&gt;&lt;/p&gt;" style="rounded=0;whiteSpace=wrap;html=1;fillColor=#ffe6cc;strokeColor=#d79b00;align=left;" vertex="1" parent="1">
          <mxGeometry x="-500" y="497.5" width="210" height="487" as="geometry" />
        </mxCell>
        <mxCell id="smJAxq2vNJxop1MBDMqk-112" style="edgeStyle=orthogonalEdgeStyle;rounded=0;orthogonalLoop=1;jettySize=auto;html=1;exitX=0.5;exitY=0;exitDx=0;exitDy=0;entryX=0.5;entryY=1;entryDx=0;entryDy=0;" edge="1" parent="1" source="smJAxq2vNJxop1MBDMqk-50" target="smJAxq2vNJxop1MBDMqk-52">
          <mxGeometry relative="1" as="geometry" />
        </mxCell>
        <mxCell id="smJAxq2vNJxop1MBDMqk-50" value="&lt;p style=&quot;margin-left:18.0pt;line-height:normal&quot; class=&quot;MsoNormal&quot;&gt;&lt;font&gt;El usuario&lt;br&gt;debe seleccionar un pedido de compra de la lista de pedidos pendientes.&lt;/font&gt;&lt;/p&gt;&lt;p style=&quot;margin-left:18.0pt;line-height:normal&quot; class=&quot;MsoNormal&quot;&gt;&lt;font&gt;El usuario&lt;br&gt;debe ingresar la cantidad de productos recibidos de cada producto solicitado.&lt;/font&gt;&lt;/p&gt;&lt;p style=&quot;margin-left:18.0pt;line-height:normal&quot; class=&quot;MsoNormal&quot;&gt;&lt;font&gt;El sistema&lt;br&gt;debe verificar si la cantidad de productos recibidos es menor o igual a la&lt;br&gt;cantidad solicitada en el pedido.&lt;/font&gt;&lt;/p&gt;&lt;p style=&quot;margin-left:18.0pt;line-height:normal&quot; class=&quot;MsoNormal&quot;&gt;&lt;font&gt;Si la cantidad&lt;br&gt;de productos recibidos es mayor que la cantidad solicitada, el sistema debe&lt;br&gt;mostrar un mensaje al usuario indicando que hay un exceso de productos.&lt;/font&gt;&lt;/p&gt;&lt;p style=&quot;margin-left:18.0pt;line-height:normal&quot; class=&quot;MsoNormal&quot;&gt;&lt;font&gt;Si la cantidad&lt;br&gt;de productos recibidos es menor que la cantidad solicitada, el sistema debe&lt;br&gt;mostrar un mensaje al usuario indicando que faltan productos.&lt;/font&gt;&lt;/p&gt;&lt;p style=&quot;margin-left:18.0pt;line-height:normal&quot; class=&quot;MsoNormal&quot;&gt;&lt;font&gt;Si la cantidad&lt;br&gt;de productos recibidos es igual a la cantidad solicitada, el sistema debe&lt;br&gt;actualizar el estado del pedido a &quot;completado&quot;.&lt;/font&gt;&lt;/p&gt;&lt;p style=&quot;margin-left:18.0pt;line-height:normal&quot; class=&quot;MsoNormal&quot;&gt;&lt;font&gt;El sistema&lt;br&gt;debe actualizar la cantidad de stock de los productos recibidos.&lt;/font&gt;&lt;/p&gt;&lt;p style=&quot;margin-left:18.0pt;line-height:normal&quot; class=&quot;MsoNormal&quot;&gt;&lt;font&gt;El sistema&lt;br&gt;debe generar un registro de recepción de productos, incluyendo la fecha, la&lt;br&gt;hora, el pedido de compra, los productos recibidos y la cantidad de cada&lt;br&gt;producto.&lt;/font&gt;&lt;/p&gt;" style="rounded=0;whiteSpace=wrap;html=1;fillColor=#ffe6cc;strokeColor=#d79b00;align=left;" vertex="1" parent="1">
          <mxGeometry x="-260" y="497.5" width="210" height="705" as="geometry" />
        </mxCell>
        <mxCell id="smJAxq2vNJxop1MBDMqk-111" style="edgeStyle=orthogonalEdgeStyle;rounded=0;orthogonalLoop=1;jettySize=auto;html=1;exitX=0.5;exitY=0;exitDx=0;exitDy=0;entryX=0.5;entryY=1;entryDx=0;entryDy=0;" edge="1" parent="1" source="smJAxq2vNJxop1MBDMqk-51" target="smJAxq2vNJxop1MBDMqk-46">
          <mxGeometry relative="1" as="geometry" />
        </mxCell>
        <mxCell id="smJAxq2vNJxop1MBDMqk-51" value="&lt;span id=&quot;docs-internal-guid-dc22c6c8-7fff-cbcb-3923-e13048c2b070&quot;&gt;&lt;span style=&quot;font-family: Arial, sans-serif; background-color: transparent; font-variant-numeric: normal; font-variant-east-asian: normal; font-variant-alternates: normal; font-variant-position: normal; vertical-align: baseline; white-space-collapse: preserve;&quot;&gt;&lt;font style=&quot;font-size: 12px;&quot;&gt;Gestión de Pedidos de Compra&lt;/font&gt;&lt;/span&gt;&lt;/span&gt;" style="rounded=0;whiteSpace=wrap;html=1;fillColor=#ffe6cc;strokeColor=#d79b00;" vertex="1" parent="1">
          <mxGeometry x="-455" y="394.5" width="120" height="60" as="geometry" />
        </mxCell>
        <mxCell id="smJAxq2vNJxop1MBDMqk-114" style="edgeStyle=orthogonalEdgeStyle;rounded=0;orthogonalLoop=1;jettySize=auto;html=1;exitX=0.5;exitY=0;exitDx=0;exitDy=0;entryX=0.5;entryY=1;entryDx=0;entryDy=0;" edge="1" parent="1" source="smJAxq2vNJxop1MBDMqk-52" target="smJAxq2vNJxop1MBDMqk-54">
          <mxGeometry relative="1" as="geometry" />
        </mxCell>
        <mxCell id="smJAxq2vNJxop1MBDMqk-115" style="edgeStyle=orthogonalEdgeStyle;rounded=0;orthogonalLoop=1;jettySize=auto;html=1;exitX=0.5;exitY=0;exitDx=0;exitDy=0;entryX=0.5;entryY=1;entryDx=0;entryDy=0;" edge="1" parent="1" source="smJAxq2vNJxop1MBDMqk-52" target="smJAxq2vNJxop1MBDMqk-55">
          <mxGeometry relative="1" as="geometry" />
        </mxCell>
        <mxCell id="smJAxq2vNJxop1MBDMqk-137" style="edgeStyle=orthogonalEdgeStyle;rounded=0;orthogonalLoop=1;jettySize=auto;html=1;exitX=0.5;exitY=0;exitDx=0;exitDy=0;" edge="1" parent="1" source="smJAxq2vNJxop1MBDMqk-52" target="smJAxq2vNJxop1MBDMqk-53">
          <mxGeometry relative="1" as="geometry" />
        </mxCell>
        <mxCell id="smJAxq2vNJxop1MBDMqk-52" value="&lt;span id=&quot;docs-internal-guid-b311a7d2-7fff-af03-7f63-8c36fb018b24&quot;&gt;&lt;span style=&quot;font-family: Arial, sans-serif; background-color: transparent; font-variant-numeric: normal; font-variant-east-asian: normal; font-variant-alternates: normal; font-variant-position: normal; vertical-align: baseline; white-space-collapse: preserve;&quot;&gt;&lt;font style=&quot;font-size: 12px;&quot;&gt;Recepción de Pedidos de Compra&lt;/font&gt;&lt;/span&gt;&lt;/span&gt;" style="rounded=0;whiteSpace=wrap;html=1;fillColor=#ffe6cc;strokeColor=#d79b00;" vertex="1" parent="1">
          <mxGeometry x="-215" y="397" width="120" height="60" as="geometry" />
        </mxCell>
        <mxCell id="smJAxq2vNJxop1MBDMqk-151" style="edgeStyle=orthogonalEdgeStyle;rounded=0;orthogonalLoop=1;jettySize=auto;html=1;exitX=0.5;exitY=0;exitDx=0;exitDy=0;" edge="1" parent="1" source="smJAxq2vNJxop1MBDMqk-53" target="smJAxq2vNJxop1MBDMqk-45">
          <mxGeometry relative="1" as="geometry" />
        </mxCell>
        <mxCell id="smJAxq2vNJxop1MBDMqk-53" value="&lt;span id=&quot;docs-internal-guid-6e8f458d-7fff-91ea-0ea4-13fc9b706551&quot;&gt;&lt;span style=&quot;font-family: Arial, sans-serif; background-color: transparent; font-variant-numeric: normal; font-variant-east-asian: normal; font-variant-alternates: normal; font-variant-position: normal; vertical-align: baseline; white-space-collapse: preserve;&quot;&gt;Especificación de la cantidad de productos solicitados.&lt;/span&gt;&lt;/span&gt;" style="rounded=0;whiteSpace=wrap;html=1;fillColor=#ffe6cc;strokeColor=#d79b00;" vertex="1" parent="1">
          <mxGeometry x="-380" y="279.5" width="120" height="60" as="geometry" />
        </mxCell>
        <mxCell id="smJAxq2vNJxop1MBDMqk-150" style="edgeStyle=orthogonalEdgeStyle;rounded=0;orthogonalLoop=1;jettySize=auto;html=1;exitX=0.5;exitY=0;exitDx=0;exitDy=0;" edge="1" parent="1" source="smJAxq2vNJxop1MBDMqk-54" target="smJAxq2vNJxop1MBDMqk-45">
          <mxGeometry relative="1" as="geometry" />
        </mxCell>
        <mxCell id="smJAxq2vNJxop1MBDMqk-54" value="&lt;span id=&quot;docs-internal-guid-f670de3e-7fff-ead2-99f4-84279c788711&quot;&gt;&lt;span style=&quot;font-family: Arial, sans-serif; background-color: transparent; font-variant-numeric: normal; font-variant-east-asian: normal; font-variant-alternates: normal; font-variant-position: normal; vertical-align: baseline; white-space-collapse: preserve;&quot;&gt;Seguimiento del estado de los pedidos&lt;/span&gt;&lt;/span&gt;" style="rounded=0;whiteSpace=wrap;html=1;fillColor=#ffe6cc;strokeColor=#d79b00;" vertex="1" parent="1">
          <mxGeometry x="-215" y="274.5" width="120" height="60" as="geometry" />
        </mxCell>
        <mxCell id="smJAxq2vNJxop1MBDMqk-141" style="edgeStyle=orthogonalEdgeStyle;rounded=0;orthogonalLoop=1;jettySize=auto;html=1;exitX=0.5;exitY=0;exitDx=0;exitDy=0;" edge="1" parent="1" source="smJAxq2vNJxop1MBDMqk-55" target="smJAxq2vNJxop1MBDMqk-45">
          <mxGeometry relative="1" as="geometry" />
        </mxCell>
        <mxCell id="smJAxq2vNJxop1MBDMqk-55" value="&lt;span id=&quot;docs-internal-guid-98a31a26-7fff-0e2e-bf2b-dae654af38fa&quot;&gt;&lt;span style=&quot;font-family: Arial, sans-serif; background-color: transparent; font-variant-numeric: normal; font-variant-east-asian: normal; font-variant-alternates: normal; font-variant-position: normal; vertical-align: baseline; white-space-collapse: preserve;&quot;&gt;Generación de informes de compras.&lt;/span&gt;&lt;/span&gt;" style="rounded=0;whiteSpace=wrap;html=1;fillColor=#ffe6cc;strokeColor=#d79b00;" vertex="1" parent="1">
          <mxGeometry x="-60" y="279.5" width="120" height="60" as="geometry" />
        </mxCell>
        <mxCell id="smJAxq2vNJxop1MBDMqk-56" value="&lt;span id=&quot;docs-internal-guid-3bae7045-7fff-7631-78a8-f7d411c63afb&quot;&gt;&lt;span style=&quot;font-family: Arial, sans-serif; background-color: transparent; font-variant-numeric: normal; font-variant-east-asian: normal; font-variant-alternates: normal; font-variant-position: normal; vertical-align: baseline; white-space-collapse: preserve;&quot;&gt;&lt;font style=&quot;font-size: 12px;&quot;&gt;Generación de Informes de Compras&lt;/font&gt;&lt;/span&gt;&lt;/span&gt;" style="rounded=0;whiteSpace=wrap;html=1;fillColor=#e1d5e7;strokeColor=#9673a6;" vertex="1" parent="1">
          <mxGeometry x="595" y="399.5" width="120" height="60" as="geometry" />
        </mxCell>
        <mxCell id="smJAxq2vNJxop1MBDMqk-124" style="edgeStyle=orthogonalEdgeStyle;rounded=0;orthogonalLoop=1;jettySize=auto;html=1;exitX=0.5;exitY=0;exitDx=0;exitDy=0;" edge="1" parent="1" source="smJAxq2vNJxop1MBDMqk-57" target="smJAxq2vNJxop1MBDMqk-67">
          <mxGeometry relative="1" as="geometry" />
        </mxCell>
        <mxCell id="smJAxq2vNJxop1MBDMqk-57" value="&lt;span id=&quot;docs-internal-guid-530d6a31-7fff-37d7-faf0-dfed2b79f89f&quot;&gt;&lt;span style=&quot;font-family: Arial, sans-serif; background-color: transparent; font-variant-numeric: normal; font-variant-east-asian: normal; font-variant-alternates: normal; font-variant-position: normal; vertical-align: baseline; white-space-collapse: preserve;&quot;&gt;&lt;font style=&quot;font-size: 12px;&quot;&gt;Generación de Informes de Movimientos de Stock&lt;/font&gt;&lt;/span&gt;&lt;/span&gt;" style="rounded=0;whiteSpace=wrap;html=1;fillColor=#e1d5e7;strokeColor=#9673a6;" vertex="1" parent="1">
          <mxGeometry x="354" y="399.5" width="120" height="59.5" as="geometry" />
        </mxCell>
        <mxCell id="smJAxq2vNJxop1MBDMqk-127" style="edgeStyle=orthogonalEdgeStyle;rounded=0;orthogonalLoop=1;jettySize=auto;html=1;exitX=0.5;exitY=0;exitDx=0;exitDy=0;" edge="1" parent="1" source="smJAxq2vNJxop1MBDMqk-59" target="smJAxq2vNJxop1MBDMqk-62">
          <mxGeometry relative="1" as="geometry" />
        </mxCell>
        <mxCell id="smJAxq2vNJxop1MBDMqk-59" value="&lt;p style=&quot;margin-left:18.0pt;line-height:normal&quot; class=&quot;MsoNormal&quot;&gt;&lt;font&gt;El usuario&lt;br&gt;debe poder generar un informe que muestre el inventario actual de todos los&lt;br&gt;productos.&lt;/font&gt;&lt;/p&gt;&lt;p style=&quot;margin-left:18.0pt;line-height:normal&quot; class=&quot;MsoNormal&quot;&gt;&lt;font&gt;El informe&lt;br&gt;debe incluir el nombre del producto, la categoría del producto, la cantidad de&lt;br&gt;stock disponible, el valor total del stock (precio de venta x cantidad de&lt;br&gt;stock) y el punto de reorden.&lt;/font&gt;&lt;/p&gt;&lt;p style=&quot;margin-left:18.0pt;line-height:normal&quot; class=&quot;MsoNormal&quot;&gt;&lt;font&gt;El usuario&lt;br&gt;debe poder filtrar el informe por categoría de producto.&lt;/font&gt;&lt;/p&gt;&lt;p style=&quot;margin-left:18.0pt;line-height:normal&quot; class=&quot;MsoNormal&quot;&gt;&lt;font&gt;El usuario&lt;br&gt;debe poder ordenar el informe por diferentes criterios (por ejemplo, nombre del&lt;br&gt;producto, cantidad de stock, valor total del stock).&lt;/font&gt;&lt;/p&gt;&lt;p style=&quot;margin-left:18.0pt;line-height:normal&quot; class=&quot;MsoNormal&quot;&gt;&lt;font&gt;El usuario&lt;br&gt;debe poder exportar el informe a un archivo CSV.&lt;/font&gt;&lt;/p&gt;" style="rounded=0;whiteSpace=wrap;html=1;fillColor=#e1d5e7;strokeColor=#9673a6;align=left;" vertex="1" parent="1">
          <mxGeometry x="890" y="523.25" width="200" height="445.5" as="geometry" />
        </mxCell>
        <mxCell id="smJAxq2vNJxop1MBDMqk-117" style="edgeStyle=orthogonalEdgeStyle;rounded=0;orthogonalLoop=1;jettySize=auto;html=1;exitX=0.5;exitY=0;exitDx=0;exitDy=0;entryX=0.5;entryY=1;entryDx=0;entryDy=0;" edge="1" parent="1" source="smJAxq2vNJxop1MBDMqk-60" target="smJAxq2vNJxop1MBDMqk-57">
          <mxGeometry relative="1" as="geometry" />
        </mxCell>
        <mxCell id="smJAxq2vNJxop1MBDMqk-60" value="&lt;p style=&quot;margin-left:18.0pt;line-height:normal&quot; class=&quot;MsoNormal&quot;&gt;&lt;font&gt;El usuario&lt;br&gt;debe poder generar un informe que muestre todos los movimientos de stock de un&lt;br&gt;producto seleccionado en un rango de fechas especificado.&lt;/font&gt;&lt;/p&gt;&lt;p style=&quot;margin-left:18.0pt;line-height:normal&quot; class=&quot;MsoNormal&quot;&gt;&lt;font&gt;El informe&lt;br&gt;debe incluir la fecha, la hora, la operación realizada (entrada o salida), la&lt;br&gt;cantidad de productos y el usuario que realizó la operación.&lt;/font&gt;&lt;/p&gt;&lt;p style=&quot;margin-left:18.0pt;line-height:normal&quot; class=&quot;MsoNormal&quot;&gt;&lt;font&gt;El usuario&lt;br&gt;debe poder exportar el informe a un archivo CSV.&lt;/font&gt;&lt;/p&gt;" style="rounded=0;whiteSpace=wrap;html=1;fillColor=#e1d5e7;strokeColor=#9673a6;align=left;" vertex="1" parent="1">
          <mxGeometry x="316" y="501" width="196" height="290" as="geometry" />
        </mxCell>
        <mxCell id="smJAxq2vNJxop1MBDMqk-118" style="edgeStyle=orthogonalEdgeStyle;rounded=0;orthogonalLoop=1;jettySize=auto;html=1;exitX=0.5;exitY=0;exitDx=0;exitDy=0;entryX=0.5;entryY=1;entryDx=0;entryDy=0;" edge="1" parent="1" source="smJAxq2vNJxop1MBDMqk-61" target="smJAxq2vNJxop1MBDMqk-56">
          <mxGeometry relative="1" as="geometry" />
        </mxCell>
        <mxCell id="smJAxq2vNJxop1MBDMqk-61" value="&lt;p style=&quot;margin-left:18.0pt;line-height:normal&quot; class=&quot;MsoNormal&quot;&gt;&lt;font&gt;El usuario&lt;br&gt;debe poder generar un informe que muestre todas las compras realizadas a un&lt;br&gt;proveedor seleccionado en un rango de fechas especificadas.&lt;/font&gt;&lt;/p&gt;&lt;p style=&quot;margin-left:18.0pt;line-height:normal&quot; class=&quot;MsoNormal&quot;&gt;&lt;font&gt;El informe&lt;br&gt;debe incluir la fecha de la compra, el número de pedido, el nombre de&lt;br&gt;producto, la cantidad comprada, el precio unitario y el total de la compra.&lt;/font&gt;&lt;/p&gt;&lt;p style=&quot;margin-left:18.0pt;line-height:normal&quot; class=&quot;MsoNormal&quot;&gt;&lt;font&gt;El usuario&lt;br&gt;debe poder exportar el informe a un archivo CSV.&lt;/font&gt;&lt;/p&gt;" style="rounded=0;whiteSpace=wrap;html=1;fillColor=#e1d5e7;strokeColor=#9673a6;align=left;" vertex="1" parent="1">
          <mxGeometry x="550" y="505.5" width="210" height="276" as="geometry" />
        </mxCell>
        <mxCell id="smJAxq2vNJxop1MBDMqk-128" style="edgeStyle=orthogonalEdgeStyle;rounded=0;orthogonalLoop=1;jettySize=auto;html=1;exitX=0.5;exitY=0;exitDx=0;exitDy=0;" edge="1" parent="1" source="smJAxq2vNJxop1MBDMqk-62" target="ifA4q1T7cPtU3ayCD0aI-21">
          <mxGeometry relative="1" as="geometry" />
        </mxCell>
        <mxCell id="smJAxq2vNJxop1MBDMqk-62" value="&lt;span id=&quot;docs-internal-guid-19791e6b-7fff-53eb-1e0d-59a78706d241&quot;&gt;&lt;span style=&quot;font-family: Arial, sans-serif; background-color: transparent; font-variant-numeric: normal; font-variant-east-asian: normal; font-variant-alternates: normal; font-variant-position: normal; vertical-align: baseline; white-space-collapse: preserve;&quot;&gt;&lt;font style=&quot;font-size: 12px;&quot;&gt;Visualización de Gráficas y Estadísticas&lt;/font&gt;&lt;/span&gt;&lt;/span&gt;" style="rounded=0;whiteSpace=wrap;html=1;fillColor=#e1d5e7;strokeColor=#9673a6;" vertex="1" parent="1">
          <mxGeometry x="930" y="399.5" width="120" height="60" as="geometry" />
        </mxCell>
        <mxCell id="smJAxq2vNJxop1MBDMqk-157" style="edgeStyle=orthogonalEdgeStyle;rounded=0;orthogonalLoop=1;jettySize=auto;html=1;exitX=0.5;exitY=0;exitDx=0;exitDy=0;" edge="1" parent="1" source="smJAxq2vNJxop1MBDMqk-65" target="ifA4q1T7cPtU3ayCD0aI-2">
          <mxGeometry relative="1" as="geometry" />
        </mxCell>
        <mxCell id="smJAxq2vNJxop1MBDMqk-65" value="&lt;span id=&quot;docs-internal-guid-c7f2ce07-7fff-3489-6e0f-4d6984afb3eb&quot;&gt;&lt;span style=&quot;font-family: Arial, sans-serif; background-color: transparent; font-variant-numeric: normal; font-variant-east-asian: normal; font-variant-alternates: normal; font-variant-position: normal; vertical-align: baseline; white-space-collapse: preserve;&quot;&gt;&lt;font style=&quot;font-size: 12px;&quot;&gt;Informes y estadísticas:&lt;/font&gt;&lt;/span&gt;&lt;/span&gt;" style="rounded=0;whiteSpace=wrap;html=1;fillColor=#e1d5e7;strokeColor=#9673a6;" vertex="1" parent="1">
          <mxGeometry x="670" y="110" width="120" height="60" as="geometry" />
        </mxCell>
        <mxCell id="smJAxq2vNJxop1MBDMqk-152" style="edgeStyle=orthogonalEdgeStyle;rounded=0;orthogonalLoop=1;jettySize=auto;html=1;exitX=0.5;exitY=0;exitDx=0;exitDy=0;" edge="1" parent="1" source="smJAxq2vNJxop1MBDMqk-66" target="smJAxq2vNJxop1MBDMqk-65">
          <mxGeometry relative="1" as="geometry" />
        </mxCell>
        <mxCell id="smJAxq2vNJxop1MBDMqk-66" value="&lt;span id=&quot;docs-internal-guid-3e1a6cce-7fff-8cd4-71e4-f4f967713c3e&quot;&gt;&lt;span style=&quot;font-family: Arial, sans-serif; background-color: transparent; font-variant-numeric: normal; font-variant-east-asian: normal; font-variant-alternates: normal; font-variant-position: normal; vertical-align: baseline; white-space-collapse: preserve;&quot;&gt;Exportación de informes a archivos CSV.&lt;/span&gt;&lt;/span&gt;" style="rounded=0;whiteSpace=wrap;html=1;fillColor=#e1d5e7;strokeColor=#9673a6;" vertex="1" parent="1">
          <mxGeometry x="560" y="254.5" width="120" height="60" as="geometry" />
        </mxCell>
        <mxCell id="smJAxq2vNJxop1MBDMqk-125" style="edgeStyle=orthogonalEdgeStyle;rounded=0;orthogonalLoop=1;jettySize=auto;html=1;exitX=1;exitY=0.5;exitDx=0;exitDy=0;entryX=0;entryY=0.5;entryDx=0;entryDy=0;" edge="1" parent="1" source="smJAxq2vNJxop1MBDMqk-67" target="smJAxq2vNJxop1MBDMqk-66">
          <mxGeometry relative="1" as="geometry" />
        </mxCell>
        <mxCell id="smJAxq2vNJxop1MBDMqk-153" style="edgeStyle=orthogonalEdgeStyle;rounded=0;orthogonalLoop=1;jettySize=auto;html=1;exitX=0.5;exitY=0;exitDx=0;exitDy=0;" edge="1" parent="1" source="smJAxq2vNJxop1MBDMqk-67" target="smJAxq2vNJxop1MBDMqk-65">
          <mxGeometry relative="1" as="geometry" />
        </mxCell>
        <mxCell id="smJAxq2vNJxop1MBDMqk-67" value="&lt;span id=&quot;docs-internal-guid-0e340734-7fff-d291-8962-b0b6d239507a&quot;&gt;&lt;span style=&quot;font-family: Arial, sans-serif; background-color: transparent; font-variant-numeric: normal; font-variant-east-asian: normal; font-variant-alternates: normal; font-variant-position: normal; vertical-align: baseline; white-space-collapse: preserve;&quot;&gt;Generación de informes sobre el inventario actual, incluyendo valor total y productos con mayor y menor rotación.&lt;/span&gt;&lt;/span&gt;" style="rounded=0;whiteSpace=wrap;html=1;fillColor=#e1d5e7;strokeColor=#9673a6;" vertex="1" parent="1">
          <mxGeometry x="320" y="234.5" width="160" height="100" as="geometry" />
        </mxCell>
        <mxCell id="smJAxq2vNJxop1MBDMqk-123" style="edgeStyle=orthogonalEdgeStyle;rounded=0;orthogonalLoop=1;jettySize=auto;html=1;exitX=0.5;exitY=0;exitDx=0;exitDy=0;" edge="1" parent="1" source="smJAxq2vNJxop1MBDMqk-68" target="smJAxq2vNJxop1MBDMqk-67">
          <mxGeometry relative="1" as="geometry" />
        </mxCell>
        <mxCell id="smJAxq2vNJxop1MBDMqk-68" value="&lt;span id=&quot;docs-internal-guid-786fa63d-7fff-f561-4c8f-9e00dfee0970&quot;&gt;&lt;span style=&quot;font-family: Arial, sans-serif; background-color: transparent; font-variant-numeric: normal; font-variant-east-asian: normal; font-variant-alternates: normal; font-variant-position: normal; vertical-align: baseline; white-space-collapse: preserve;&quot;&gt;&lt;font style=&quot;font-size: 12px;&quot;&gt;Generación de Informes de Inventario Actual&lt;/font&gt;&lt;/span&gt;&lt;/span&gt;" style="rounded=0;whiteSpace=wrap;html=1;fillColor=#e1d5e7;strokeColor=#9673a6;" vertex="1" parent="1">
          <mxGeometry x="130" y="399.5" width="120" height="60" as="geometry" />
        </mxCell>
        <mxCell id="smJAxq2vNJxop1MBDMqk-116" style="edgeStyle=orthogonalEdgeStyle;rounded=0;orthogonalLoop=1;jettySize=auto;html=1;exitX=0.5;exitY=0;exitDx=0;exitDy=0;entryX=0.5;entryY=1;entryDx=0;entryDy=0;" edge="1" parent="1" source="smJAxq2vNJxop1MBDMqk-69" target="smJAxq2vNJxop1MBDMqk-68">
          <mxGeometry relative="1" as="geometry" />
        </mxCell>
        <mxCell id="smJAxq2vNJxop1MBDMqk-69" value="&lt;p style=&quot;margin-left:18.0pt;line-height:normal&quot; class=&quot;MsoNormal&quot;&gt;&lt;font&gt;El usuario&lt;br&gt;debe poder generar un informe que muestre el inventario actual de todos los&lt;br&gt;productos.&lt;/font&gt;&lt;/p&gt;&lt;p style=&quot;margin-left:18.0pt;line-height:normal&quot; class=&quot;MsoNormal&quot;&gt;&lt;font&gt;El informe&lt;br&gt;debe incluir el nombre del producto, la categoría del producto, la cantidad de&lt;br&gt;stock disponible, el valor total del stock (precio de venta x cantidad de&lt;br&gt;stock) y el punto de reorden.&lt;/font&gt;&lt;/p&gt;&lt;p style=&quot;margin-left:18.0pt;line-height:normal&quot; class=&quot;MsoNormal&quot;&gt;&lt;font&gt;El usuario&lt;br&gt;debe poder filtrar el informe por categoría de producto.&lt;/font&gt;&lt;/p&gt;&lt;p style=&quot;margin-left:18.0pt;line-height:normal&quot; class=&quot;MsoNormal&quot;&gt;&lt;font&gt;El usuario&lt;br&gt;debe poder ordenar el informe por diferentes criterios (por ejemplo, nombre del&lt;br&gt;producto, cantidad de stock, valor total del stock).&lt;/font&gt;&lt;/p&gt;&lt;p style=&quot;margin-left:18.0pt;line-height:normal&quot; class=&quot;MsoNormal&quot;&gt;&lt;font&gt;El usuario&lt;br&gt;debe poder exportar el informe a un archivo CSV.&lt;/font&gt;&lt;/p&gt;" style="rounded=0;whiteSpace=wrap;html=1;fillColor=#e1d5e7;strokeColor=#9673a6;align=left;" vertex="1" parent="1">
          <mxGeometry x="90" y="498.5" width="200" height="445.5" as="geometry" />
        </mxCell>
        <mxCell id="smJAxq2vNJxop1MBDMqk-158" style="edgeStyle=orthogonalEdgeStyle;rounded=0;orthogonalLoop=1;jettySize=auto;html=1;exitX=0.5;exitY=0;exitDx=0;exitDy=0;" edge="1" parent="1" source="smJAxq2vNJxop1MBDMqk-70" target="ifA4q1T7cPtU3ayCD0aI-2">
          <mxGeometry relative="1" as="geometry" />
        </mxCell>
        <mxCell id="smJAxq2vNJxop1MBDMqk-70" value="&lt;span id=&quot;docs-internal-guid-e4e3b805-7fff-61b6-c1e5-58fe6dffaa65&quot;&gt;&lt;span style=&quot;font-size: 11pt; font-family: Arial, sans-serif; color: rgb(0, 0, 0); background-color: transparent; font-weight: 700; font-variant-numeric: normal; font-variant-east-asian: normal; font-variant-alternates: normal; font-variant-position: normal; vertical-align: baseline; white-space-collapse: preserve;&quot;&gt;Seguridad&lt;/span&gt;&lt;/span&gt;" style="rounded=0;whiteSpace=wrap;html=1;fillColor=#f5f5f5;fontColor=#333333;strokeColor=#666666;" vertex="1" parent="1">
          <mxGeometry x="1340" y="208.5" width="120" height="60" as="geometry" />
        </mxCell>
        <mxCell id="smJAxq2vNJxop1MBDMqk-135" style="edgeStyle=orthogonalEdgeStyle;rounded=0;orthogonalLoop=1;jettySize=auto;html=1;exitX=0.5;exitY=0;exitDx=0;exitDy=0;" edge="1" parent="1" source="smJAxq2vNJxop1MBDMqk-71" target="smJAxq2vNJxop1MBDMqk-70">
          <mxGeometry relative="1" as="geometry" />
        </mxCell>
        <mxCell id="smJAxq2vNJxop1MBDMqk-71" value="&lt;br&gt;&lt;br&gt;&lt;br&gt;&lt;p style=&quot;margin-left:18.0pt;line-height:normal&quot; class=&quot;MsoNormal&quot;&gt;El sistema&lt;br&gt;debe implementar medidas de seguridad para proteger el acceso a la información&lt;br&gt;del inventario.&lt;/p&gt;&lt;p style=&quot;margin-left:18.0pt;line-height:normal&quot; class=&quot;MsoNormal&quot;&gt;Los usuarios&lt;br&gt;deben tener diferentes niveles de acceso al sistema, de acuerdo a su rol (por&lt;br&gt;ejemplo, administrador, vendedor, encargado de bodega) en los que cada uno&lt;br&gt;tendrá acceso a solamente las funcionalidades asignadas a cada rol en&lt;br&gt;específico.&lt;/p&gt;&lt;p style=&quot;margin-left:18.0pt;line-height:normal&quot; class=&quot;MsoNormal&quot;&gt;El sistema&lt;br&gt;debe registrar las actividades de los usuarios en el sistema, almacenando en un&lt;br&gt;archivo de texto de acceso secuencial, el nombre del usuario y la fecha de&lt;br&gt;acceso y salida del sistema, por cada vez que el usuario acceda y salga del&lt;br&gt;sistema.&lt;/p&gt;&lt;br&gt;&lt;br&gt;&lt;br&gt;&lt;br&gt;&lt;div&gt;&lt;br&gt;&lt;/div&gt;" style="rounded=0;whiteSpace=wrap;html=1;fillColor=#f5f5f5;fontColor=#333333;strokeColor=#666666;align=left;" vertex="1" parent="1">
          <mxGeometry x="1200" y="319" width="400" height="348.25" as="geometry" />
        </mxCell>
        <mxCell id="smJAxq2vNJxop1MBDMqk-134" style="edgeStyle=orthogonalEdgeStyle;rounded=0;orthogonalLoop=1;jettySize=auto;html=1;exitX=0.5;exitY=0;exitDx=0;exitDy=0;" edge="1" parent="1" source="smJAxq2vNJxop1MBDMqk-73" target="smJAxq2vNJxop1MBDMqk-74">
          <mxGeometry relative="1" as="geometry" />
        </mxCell>
        <mxCell id="smJAxq2vNJxop1MBDMqk-73" value="&lt;br&gt;&lt;p style=&quot;margin-left:18.0pt;line-height:normal&quot; class=&quot;MsoNormal&quot;&gt;&lt;font&gt;El sistema&lt;br&gt;debe estar diseñado para que pueda adaptarse al crecimiento del negocio y la&lt;br&gt;cantidad de productos.&lt;/font&gt;&lt;/p&gt;&lt;p style=&quot;margin-left:18.0pt;line-height:normal&quot; class=&quot;MsoNormal&quot;&gt;&lt;font&gt;La base de&lt;br&gt;datos debe poder almacenar una gran cantidad de datos sin problemas de&lt;br&gt;rendimiento.&lt;/font&gt;&lt;/p&gt;&lt;p style=&quot;margin-left:18.0pt;line-height:normal&quot; class=&quot;MsoNormal&quot;&gt;&lt;font&gt;La interfaz de&lt;br&gt;usuario debe ser fácil de usar para usuarios con diferentes niveles de&lt;br&gt;experiencia.&lt;/font&gt;&lt;/p&gt;" style="rounded=0;whiteSpace=wrap;html=1;fillColor=#b1ddf0;strokeColor=#10739e;align=left;" vertex="1" parent="1">
          <mxGeometry x="1790" y="303" width="280" height="230" as="geometry" />
        </mxCell>
        <mxCell id="smJAxq2vNJxop1MBDMqk-159" style="edgeStyle=orthogonalEdgeStyle;rounded=0;orthogonalLoop=1;jettySize=auto;html=1;exitX=0.5;exitY=0;exitDx=0;exitDy=0;" edge="1" parent="1" source="smJAxq2vNJxop1MBDMqk-74" target="ifA4q1T7cPtU3ayCD0aI-2">
          <mxGeometry relative="1" as="geometry" />
        </mxCell>
        <mxCell id="smJAxq2vNJxop1MBDMqk-74" value="&lt;br&gt;&lt;span id=&quot;docs-internal-guid-78d3b773-7fff-a64d-6d4a-1483cc8b211e&quot; style=&quot;&quot;&gt;&lt;span style=&quot;font-size: 11pt; font-family: Arial, sans-serif; color: rgb(0, 0, 0); background-color: transparent; font-style: normal; font-variant: normal; text-decoration: none; vertical-align: baseline; white-space: pre-wrap;&quot;&gt;Escalabilidad&lt;/span&gt;&lt;/span&gt;" style="rounded=0;whiteSpace=wrap;html=1;fillColor=#b1ddf0;strokeColor=#10739e;" vertex="1" parent="1">
          <mxGeometry x="1870" y="199" width="120" height="60" as="geometry" />
        </mxCell>
        <mxCell id="smJAxq2vNJxop1MBDMqk-160" style="edgeStyle=orthogonalEdgeStyle;rounded=0;orthogonalLoop=1;jettySize=auto;html=1;exitX=0.5;exitY=0;exitDx=0;exitDy=0;" edge="1" parent="1" source="smJAxq2vNJxop1MBDMqk-75" target="ifA4q1T7cPtU3ayCD0aI-2">
          <mxGeometry relative="1" as="geometry" />
        </mxCell>
        <mxCell id="smJAxq2vNJxop1MBDMqk-75" value="&lt;br&gt;&lt;span id=&quot;docs-internal-guid-8b6144af-7fff-22fb-8b31-49838d044228&quot; style=&quot;&quot;&gt;&lt;span style=&quot;font-size: 11pt; font-family: Arial, sans-serif; color: rgb(0, 0, 0); background-color: transparent; font-style: normal; font-variant: normal; text-decoration: none; vertical-align: baseline; white-space: pre-wrap;&quot;&gt;Integración con Otros Sistemas&lt;/span&gt;&lt;/span&gt;&lt;div&gt;&lt;br&gt;&lt;/div&gt;" style="rounded=0;whiteSpace=wrap;html=1;fillColor=#d0cee2;strokeColor=#56517e;align=center;" vertex="1" parent="1">
          <mxGeometry x="2250" y="199" width="120" height="60" as="geometry" />
        </mxCell>
        <mxCell id="smJAxq2vNJxop1MBDMqk-136" style="edgeStyle=orthogonalEdgeStyle;rounded=0;orthogonalLoop=1;jettySize=auto;html=1;exitX=0.5;exitY=0;exitDx=0;exitDy=0;" edge="1" parent="1" source="smJAxq2vNJxop1MBDMqk-76" target="smJAxq2vNJxop1MBDMqk-75">
          <mxGeometry relative="1" as="geometry" />
        </mxCell>
        <mxCell id="smJAxq2vNJxop1MBDMqk-76" value="&lt;div&gt;&lt;p style=&quot;margin-left:18.0pt;line-height:normal&quot; class=&quot;MsoNormal&quot;&gt;&lt;font&gt;El sistema&lt;br&gt;puede integrarse con otros sistemas de la empresa, como el sistema de ventas o&lt;br&gt;el sistema de contabilidad.&lt;/font&gt;&lt;/p&gt;&lt;p style=&quot;margin-left:18.0pt;line-height:normal&quot; class=&quot;MsoNormal&quot;&gt;&lt;font&gt;La integración&lt;br&gt;puede permitir que el sistema de gestión de inventario comparta datos con otros&lt;br&gt;sistemas&lt;/font&gt;&lt;/p&gt;&lt;/div&gt;" style="rounded=0;whiteSpace=wrap;html=1;fillColor=#d0cee2;strokeColor=#56517e;align=left;" vertex="1" parent="1">
          <mxGeometry x="2160" y="301.5" width="300" height="148.5" as="geometry" />
        </mxCell>
        <mxCell id="smJAxq2vNJxop1MBDMqk-99" style="edgeStyle=orthogonalEdgeStyle;rounded=0;orthogonalLoop=1;jettySize=auto;html=1;exitX=0.5;exitY=0;exitDx=0;exitDy=0;entryX=0.509;entryY=1.153;entryDx=0;entryDy=0;entryPerimeter=0;" edge="1" parent="1" source="smJAxq2vNJxop1MBDMqk-7" target="smJAxq2vNJxop1MBDMqk-4">
          <mxGeometry relative="1" as="geometry" />
        </mxCell>
        <mxCell id="smJAxq2vNJxop1MBDMqk-122" style="edgeStyle=orthogonalEdgeStyle;rounded=0;orthogonalLoop=1;jettySize=auto;html=1;exitX=0.5;exitY=0;exitDx=0;exitDy=0;entryX=0.504;entryY=0.932;entryDx=0;entryDy=0;entryPerimeter=0;" edge="1" parent="1" source="smJAxq2vNJxop1MBDMqk-56" target="smJAxq2vNJxop1MBDMqk-67">
          <mxGeometry relative="1" as="geometry" />
        </mxCell>
      </root>
    </mxGraphModel>
  </diagram>
</mxfile>
